<svg height="29.35" viewBox="0 0 212.545 29.35" width="212.545" xmlns="http://www.w3.org/2000/svg" xmlns:xlink="http://www.w3.org/1999/xlink"><linearGradient id="a" gradientUnits="objectBoundingBox" x2="1" y1=".5" y2=".5"><stop offset="0" stop-color="#c5a14a"/><stop offset=".522" stop-color="#dec07f"/><stop offset="1" stop-color="#f0c656"/></linearGradient><g fill="url(#a)"><path d="m308.453 241.417-10.631-10.628 10.631-10.628 10.626 10.628zm-9.217-10.628 9.217 9.211 9.212-9.214-9.212-9.214z" transform="translate(-263.367 -216.114)"/><path d="m433.1 241.418-10.629-10.628 10.629-10.63 10.628 10.63zm-9.214-10.628 9.214 9.21 9.213-9.214-9.213-9.216z" transform="translate(-263.367 -216.114)"/><path d="m0 0h212.545v2h-212.545z" transform="translate(0 13.675)"/><path d="m0 0h149.521v1h-149.521z" transform="translate(31.513 8.654)"/><path d="m0 0h149.521v1h-149.521z" transform="translate(31.513 19.208)"/><path d="m369.968 242.024h-11.813v-23.272h11.813zm-10.813-1h9.813v-21.272h-9.813z" transform="translate(-263.367 -216.114)"/><path d="m381.123 242.024h-11.812v-23.272h11.812zm-10.812-1h9.812v-21.272h-9.812z" transform="translate(-263.367 -216.114)"/><path d="m375.719 245.464h-12.157v-29.35h12.157zm-11.157-1h10.157v-27.35h-10.157z" transform="translate(-263.367 -216.114)"/></g></svg>