<svg height="759" viewBox="0 0 1327.209 759" width="1327.209" xmlns="http://www.w3.org/2000/svg" xmlns:xlink="http://www.w3.org/1999/xlink"><linearGradient id="a" gradientUnits="objectBoundingBox" x2="1" y1=".5" y2=".5"><stop offset="0" stop-color="#c9a654"/><stop offset=".458" stop-color="#edd397"/><stop offset=".561" stop-color="#edd397"/><stop offset="1" stop-color="#c9a654"/></linearGradient><filter id="b" filterUnits="userSpaceOnUse" height="56.953" width="176.026" x="26.083" y="4.67"><feOffset/><feGaussianBlur result="blur" stdDeviation="5"/><feFlood flood-opacity=".22"/><feComposite in2="blur" operator="in"/><feComposite in="SourceGraphic"/></filter><linearGradient id="c" x1="-.207" x2="1.207" xlink:href="#a" y1=".5" y2=".5"/><filter id="d" filterUnits="userSpaceOnUse" height="38.617" width="38.617" x="11.705" y="146.62"><feOffset/><feGaussianBlur result="blur-2" stdDeviation="5"/><feFlood flood-opacity=".22"/><feComposite in2="blur-2" operator="in"/><feComposite in="SourceGraphic"/></filter><filter id="e" filterUnits="userSpaceOnUse" height="36.092" width="36.092" x="5.952" y="5.833"><feOffset/><feGaussianBlur result="blur-3" stdDeviation="5"/><feFlood flood-opacity=".22"/><feComposite in2="blur-3" operator="in"/><feComposite in="SourceGraphic"/></filter><linearGradient id="f" x1="0" x2="1" xlink:href="#a" y1=".5" y2=".5"/><filter id="g" filterUnits="userSpaceOnUse" height="36.094" width="36.092" x="30.548" y="30.427"><feOffset/><feGaussianBlur result="blur-4" stdDeviation="5"/><feFlood flood-opacity=".22"/><feComposite in2="blur-4" operator="in"/><feComposite in="SourceGraphic"/></filter><filter id="h" filterUnits="userSpaceOnUse" height="38.617" width="38.617" x="147.658" y="11.571"><feOffset/><feGaussianBlur result="blur-5" stdDeviation="5"/><feFlood flood-opacity=".22"/><feComposite in2="blur-5" operator="in"/><feComposite in="SourceGraphic"/></filter><filter id="i" filterUnits="userSpaceOnUse" height="38.617" width="38.617" x="167.807" y="1.525"><feOffset/><feGaussianBlur result="blur-6" stdDeviation="5"/><feFlood flood-opacity=".22"/><feComposite in2="blur-6" operator="in"/><feComposite in="SourceGraphic"/></filter><filter id="j" filterUnits="userSpaceOnUse" height="38.617" width="38.617" x="1.644" y="167.817"><feOffset/><feGaussianBlur result="blur-7" stdDeviation="5"/><feFlood flood-opacity=".22"/><feComposite in2="blur-7" operator="in"/><feComposite in="SourceGraphic"/></filter><filter id="k" filterUnits="userSpaceOnUse" height="52.447" width="52.468" x="4.79" y="29.423"><feOffset/><feGaussianBlur result="blur-8" stdDeviation="5"/><feFlood flood-opacity=".22"/><feComposite in2="blur-8" operator="in"/><feComposite in="SourceGraphic"/></filter><filter id="l" filterUnits="userSpaceOnUse" height="52.447" width="52.447" x="29.536" y="4.678"><feOffset/><feGaussianBlur result="blur-9" stdDeviation="5"/><feFlood flood-opacity=".22"/><feComposite in2="blur-9" operator="in"/><feComposite in="SourceGraphic"/></filter><filter id="m" filterUnits="userSpaceOnUse" height="59.421" width="32.331" x="24.917" y="1.174"><feOffset/><feGaussianBlur result="blur-10" stdDeviation="5"/><feFlood flood-opacity=".22"/><feComposite in2="blur-10" operator="in"/><feComposite in="SourceGraphic"/></filter><filter id="n" filterUnits="userSpaceOnUse" height="137.278" width="60.589" x="0" y="24.924"><feOffset/><feGaussianBlur result="blur-11" stdDeviation="5"/><feFlood flood-opacity=".22"/><feComposite in2="blur-11" operator="in"/><feComposite in="SourceGraphic"/></filter><filter id="o" filterUnits="userSpaceOnUse" height="60.589" width="137.257" x="24.917" y=".006"><feOffset/><feGaussianBlur result="blur-12" stdDeviation="5"/><feFlood flood-opacity=".22"/><feComposite in2="blur-12" operator="in"/><feComposite in="SourceGraphic"/></filter><filter id="p" filterUnits="userSpaceOnUse" height="176.026" width="56.971" x="4.783" y="26.091"><feOffset/><feGaussianBlur result="blur-13" stdDeviation="5"/><feFlood flood-opacity=".22"/><feComposite in2="blur-13" operator="in"/><feComposite in="SourceGraphic"/></filter><filter id="q" filterUnits="userSpaceOnUse" height="52.447" width="52.468" x="4.79" y="4.678"><feOffset/><feGaussianBlur result="blur-14" stdDeviation="5"/><feFlood flood-opacity=".22"/><feComposite in2="blur-14" operator="in"/><feComposite in="SourceGraphic"/></filter><filter id="r" filterUnits="userSpaceOnUse" height="57.125" width="57.146" x=".112" y="0"><feOffset/><feGaussianBlur result="blur-15" stdDeviation="5"/><feFlood flood-opacity=".22"/><feComposite in2="blur-15" operator="in"/><feComposite in="SourceGraphic"/></filter><filter id="s" filterUnits="userSpaceOnUse" height="32.333" width="125.58" x="56.394" y="14.728"><feOffset/><feGaussianBlur result="blur-16" stdDeviation="5"/><feFlood flood-opacity=".22"/><feComposite in2="blur-16" operator="in"/><feComposite in="SourceGraphic"/></filter><filter id="t" filterUnits="userSpaceOnUse" height="125.58" width="32.333" x="14.839" y="55.354"><feOffset/><feGaussianBlur result="blur-17" stdDeviation="5"/><feFlood flood-opacity=".22"/><feComposite in2="blur-17" operator="in"/><feComposite in="SourceGraphic"/></filter><filter id="u" filterUnits="userSpaceOnUse" height="176.026" width="56.951" x="1265.585" y="26.091"><feOffset/><feGaussianBlur result="blur-18" stdDeviation="5"/><feFlood flood-opacity=".22"/><feComposite in2="blur-18" operator="in"/><feComposite in="SourceGraphic"/></filter><filter id="v" filterUnits="userSpaceOnUse" height="38.617" width="38.617" x="1141.977" y="11.714"><feOffset/><feGaussianBlur result="blur-19" stdDeviation="5"/><feFlood flood-opacity=".22"/><feComposite in2="blur-19" operator="in"/><feComposite in="SourceGraphic"/></filter><filter id="w" filterUnits="userSpaceOnUse" height="36.094" width="36.092" x="1285.289" y="5.961"><feOffset/><feGaussianBlur result="blur-20" stdDeviation="5"/><feFlood flood-opacity=".22"/><feComposite in2="blur-20" operator="in"/><feComposite in="SourceGraphic"/></filter><filter id="x" filterUnits="userSpaceOnUse" height="36.094" width="36.092" x="1260.694" y="30.556"><feOffset/><feGaussianBlur result="blur-21" stdDeviation="5"/><feFlood flood-opacity=".22"/><feComposite in2="blur-21" operator="in"/><feComposite in="SourceGraphic"/></filter><filter id="y" filterUnits="userSpaceOnUse" height="38.616" width="38.616" x="1277.026" y="147.667"><feOffset/><feGaussianBlur result="blur-22" stdDeviation="5"/><feFlood flood-opacity=".22"/><feComposite in2="blur-22" operator="in"/><feComposite in="SourceGraphic"/></filter><filter id="z" filterUnits="userSpaceOnUse" height="38.617" width="38.617" x="1287.072" y="167.817"><feOffset/><feGaussianBlur result="blur-23" stdDeviation="5"/><feFlood flood-opacity=".22"/><feComposite in2="blur-23" operator="in"/><feComposite in="SourceGraphic"/></filter><filter id="A" filterUnits="userSpaceOnUse" height="38.617" width="38.617" x="1120.78" y="1.653"><feOffset/><feGaussianBlur result="blur-24" stdDeviation="5"/><feFlood flood-opacity=".22"/><feComposite in2="blur-24" operator="in"/><feComposite in="SourceGraphic"/></filter><filter id="B" filterUnits="userSpaceOnUse" height="52.467" width="52.468" x="1245.339" y="4.781"><feOffset/><feGaussianBlur result="blur-25" stdDeviation="5"/><feFlood flood-opacity=".22"/><feComposite in2="blur-25" operator="in"/><feComposite in="SourceGraphic"/></filter><filter id="C" filterUnits="userSpaceOnUse" height="52.468" width="52.447" x="1270.084" y="29.546"><feOffset/><feGaussianBlur result="blur-26" stdDeviation="5"/><feFlood flood-opacity=".22"/><feComposite in2="blur-26" operator="in"/><feComposite in="SourceGraphic"/></filter><filter id="D" filterUnits="userSpaceOnUse" height="32.333" width="59.403" x="1266.632" y="24.924"><feOffset/><feGaussianBlur result="blur-27" stdDeviation="5"/><feFlood flood-opacity=".22"/><feComposite in2="blur-27" operator="in"/><feComposite in="SourceGraphic"/></filter><filter id="E" filterUnits="userSpaceOnUse" height="60.589" width="137.277" x="1165.025" y=".006"><feOffset/><feGaussianBlur result="blur-28" stdDeviation="5"/><feFlood flood-opacity=".22"/><feComposite in2="blur-28" operator="in"/><feComposite in="SourceGraphic"/></filter><filter id="F" filterUnits="userSpaceOnUse" height="137.278" width="60.568" x="1266.632" y="24.924"><feOffset/><feGaussianBlur result="blur-29" stdDeviation="5"/><feFlood flood-opacity=".22"/><feComposite in2="blur-29" operator="in"/><feComposite in="SourceGraphic"/></filter><filter id="G" filterUnits="userSpaceOnUse" height="56.973" width="176.047" x="1125.091" y="4.789"><feOffset/><feGaussianBlur result="blur-30" stdDeviation="5"/><feFlood flood-opacity=".22"/><feComposite in2="blur-30" operator="in"/><feComposite in="SourceGraphic"/></filter><filter id="H" filterUnits="userSpaceOnUse" height="52.467" width="52.447" x="1270.084" y="4.781"><feOffset/><feGaussianBlur result="blur-31" stdDeviation="5"/><feFlood flood-opacity=".22"/><feComposite in2="blur-31" operator="in"/><feComposite in="SourceGraphic"/></filter><filter id="I" filterUnits="userSpaceOnUse" height="57.125" width="57.125" x="1270.084" y=".123"><feOffset/><feGaussianBlur result="blur-32" stdDeviation="5"/><feFlood flood-opacity=".22"/><feComposite in2="blur-32" operator="in"/><feComposite in="SourceGraphic"/></filter><filter id="J" filterUnits="userSpaceOnUse" height="125.578" width="32.333" x="1280.147" y="56.403"><feOffset/><feGaussianBlur result="blur-33" stdDeviation="5"/><feFlood flood-opacity=".22"/><feComposite in2="blur-33" operator="in"/><feComposite in="SourceGraphic"/></filter><filter id="K" filterUnits="userSpaceOnUse" height="32.331" width="125.578" x="1146.294" y="14.847"><feOffset/><feGaussianBlur result="blur-34" stdDeviation="5"/><feFlood flood-opacity=".22"/><feComposite in2="blur-34" operator="in"/><feComposite in="SourceGraphic"/></filter><filter id="L" filterUnits="userSpaceOnUse" height="56.971" width="176.047" x="1125.091" y="697.359"><feOffset/><feGaussianBlur result="blur-35" stdDeviation="5"/><feFlood flood-opacity=".22"/><feComposite in2="blur-35" operator="in"/><feComposite in="SourceGraphic"/></filter><filter id="M" filterUnits="userSpaceOnUse" height="38.616" width="38.616" x="1276.883" y="573.752"><feOffset/><feGaussianBlur result="blur-36" stdDeviation="5"/><feFlood flood-opacity=".22"/><feComposite in2="blur-36" operator="in"/><feComposite in="SourceGraphic"/></filter><filter id="N" filterUnits="userSpaceOnUse" height="36.092" width="36.092" x="1285.16" y="717.065"><feOffset/><feGaussianBlur result="blur-37" stdDeviation="5"/><feFlood flood-opacity=".22"/><feComposite in2="blur-37" operator="in"/><feComposite in="SourceGraphic"/></filter><filter id="O" filterUnits="userSpaceOnUse" height="36.092" width="36.092" x="1260.564" y="692.469"><feOffset/><feGaussianBlur result="blur-38" stdDeviation="5"/><feFlood flood-opacity=".22"/><feComposite in2="blur-38" operator="in"/><feComposite in="SourceGraphic"/></filter><filter id="P" filterUnits="userSpaceOnUse" height="38.617" width="38.617" x="1140.93" y="708.8"><feOffset/><feGaussianBlur result="blur-39" stdDeviation="5"/><feFlood flood-opacity=".22"/><feComposite in2="blur-39" operator="in"/><feComposite in="SourceGraphic"/></filter><filter id="Q" filterUnits="userSpaceOnUse" height="38.618" width="38.618" x="1120.78" y="718.847"><feOffset/><feGaussianBlur result="blur-40" stdDeviation="5"/><feFlood flood-opacity=".22"/><feComposite in2="blur-40" operator="in"/><feComposite in="SourceGraphic"/></filter><filter id="R" filterUnits="userSpaceOnUse" height="38.616" width="38.617" x="1286.944" y="552.556"><feOffset/><feGaussianBlur result="blur-41" stdDeviation="5"/><feFlood flood-opacity=".22"/><feComposite in2="blur-41" operator="in"/><feComposite in="SourceGraphic"/></filter><filter id="S" filterUnits="userSpaceOnUse" height="52.468" width="52.447" x="1269.982" y="677.109"><feOffset/><feGaussianBlur result="blur-42" stdDeviation="5"/><feFlood flood-opacity=".22"/><feComposite in2="blur-42" operator="in"/><feComposite in="SourceGraphic"/></filter><filter id="T" filterUnits="userSpaceOnUse" height="52.467" width="52.447" x="1245.216" y="701.854"><feOffset/><feGaussianBlur result="blur-43" stdDeviation="5"/><feFlood flood-opacity=".22"/><feComposite in2="blur-43" operator="in"/><feComposite in="SourceGraphic"/></filter><filter id="U" filterUnits="userSpaceOnUse" height="59.423" width="32.331" x="1269.972" y="698.405"><feOffset/><feGaussianBlur result="blur-44" stdDeviation="5"/><feFlood flood-opacity=".22"/><feComposite in2="blur-44" operator="in"/><feComposite in="SourceGraphic"/></filter><filter id="V" filterUnits="userSpaceOnUse" height="137.276" width="60.568" x="1266.632" y="596.801"><feOffset/><feGaussianBlur result="blur-45" stdDeviation="5"/><feFlood flood-opacity=".22"/><feComposite in2="blur-45" operator="in"/><feComposite in="SourceGraphic"/></filter><filter id="W" filterUnits="userSpaceOnUse" height="60.589" width="137.277" x="1165.025" y="698.405"><feOffset/><feGaussianBlur result="blur-46" stdDeviation="5"/><feFlood flood-opacity=".22"/><feComposite in2="blur-46" operator="in"/><feComposite in="SourceGraphic"/></filter><filter id="X" filterUnits="userSpaceOnUse" height="176.047" width="56.953" x="1265.466" y="556.864"><feOffset/><feGaussianBlur result="blur-47" stdDeviation="5"/><feFlood flood-opacity=".22"/><feComposite in2="blur-47" operator="in"/><feComposite in="SourceGraphic"/></filter><filter id="Y" filterUnits="userSpaceOnUse" height="52.467" width="52.447" x="1269.982" y="701.854"><feOffset/><feGaussianBlur result="blur-48" stdDeviation="5"/><feFlood flood-opacity=".22"/><feComposite in2="blur-48" operator="in"/><feComposite in="SourceGraphic"/></filter><filter id="Z" filterUnits="userSpaceOnUse" height="57.146" width="57.105" x="1269.982" y="701.854"><feOffset/><feGaussianBlur result="blur-49" stdDeviation="5"/><feFlood flood-opacity=".22"/><feComposite in2="blur-49" operator="in"/><feComposite in="SourceGraphic"/></filter><filter id="aa" filterUnits="userSpaceOnUse" height="32.331" width="125.58" x="1145.246" y="711.923"><feOffset/><feGaussianBlur result="blur-50" stdDeviation="5"/><feFlood flood-opacity=".22"/><feComposite in2="blur-50" operator="in"/><feComposite in="SourceGraphic"/></filter><filter id="ab" filterUnits="userSpaceOnUse" height="125.578" width="32.333" x="1280.028" y="578.068"><feOffset/><feGaussianBlur result="blur-51" stdDeviation="5"/><feFlood flood-opacity=".22"/><feComposite in2="blur-51" operator="in"/><feComposite in="SourceGraphic"/></filter><filter id="ac" filterUnits="userSpaceOnUse" height="176.047" width="56.953" x="4.664" y="556.864"><feOffset/><feGaussianBlur result="blur-52" stdDeviation="5"/><feFlood flood-opacity=".22"/><feComposite in2="blur-52" operator="in"/><feComposite in="SourceGraphic"/></filter><filter id="ad" filterUnits="userSpaceOnUse" height="38.616" width="38.616" x="146.612" y="708.659"><feOffset/><feGaussianBlur result="blur-53" stdDeviation="5"/><feFlood flood-opacity=".22"/><feComposite in2="blur-53" operator="in"/><feComposite in="SourceGraphic"/></filter><filter id="ae" filterUnits="userSpaceOnUse" height="36.092" width="36.092" x="5.823" y="716.935"><feOffset/><feGaussianBlur result="blur-54" stdDeviation="5"/><feFlood flood-opacity=".22"/><feComposite in2="blur-54" operator="in"/><feComposite in="SourceGraphic"/></filter><filter id="af" filterUnits="userSpaceOnUse" height="36.092" width="36.092" x="30.418" y="692.34"><feOffset/><feGaussianBlur result="blur-55" stdDeviation="5"/><feFlood flood-opacity=".22"/><feComposite in2="blur-55" operator="in"/><feComposite in="SourceGraphic"/></filter><filter id="ag" filterUnits="userSpaceOnUse" height="38.618" width="38.618" x="11.562" y="572.704"><feOffset/><feGaussianBlur result="blur-56" stdDeviation="5"/><feFlood flood-opacity=".22"/><feComposite in2="blur-56" operator="in"/><feComposite in="SourceGraphic"/></filter><filter id="ah" filterUnits="userSpaceOnUse" height="38.618" width="38.618" x="1.514" y="552.555"><feOffset/><feGaussianBlur result="blur-57" stdDeviation="5"/><feFlood flood-opacity=".22"/><feComposite in2="blur-57" operator="in"/><feComposite in="SourceGraphic"/></filter><filter id="ai" filterUnits="userSpaceOnUse" height="38.618" width="38.618" x="167.806" y="718.718"><feOffset/><feGaussianBlur result="blur-58" stdDeviation="5"/><feFlood flood-opacity=".22"/><feComposite in2="blur-58" operator="in"/><feComposite in="SourceGraphic"/></filter><filter id="aj" filterUnits="userSpaceOnUse" height="52.447" width="52.447" x="29.433" y="701.752"><feOffset/><feGaussianBlur result="blur-59" stdDeviation="5"/><feFlood flood-opacity=".22"/><feComposite in2="blur-59" operator="in"/><feComposite in="SourceGraphic"/></filter><filter id="ak" filterUnits="userSpaceOnUse" height="52.447" width="52.447" x="4.667" y="676.986"><feOffset/><feGaussianBlur result="blur-60" stdDeviation="5"/><feFlood flood-opacity=".22"/><feComposite in2="blur-60" operator="in"/><feComposite in="SourceGraphic"/></filter><filter id="al" filterUnits="userSpaceOnUse" height="32.331" width="59.423" x="1.165" y="701.746"><feOffset/><feGaussianBlur result="blur-61" stdDeviation="5"/><feFlood flood-opacity=".22"/><feComposite in2="blur-61" operator="in"/><feComposite in="SourceGraphic"/></filter><filter id="am" filterUnits="userSpaceOnUse" height="60.589" width="137.257" x="24.917" y="698.405"><feOffset/><feGaussianBlur result="blur-62" stdDeviation="5"/><feFlood flood-opacity=".22"/><feComposite in2="blur-62" operator="in"/><feComposite in="SourceGraphic"/></filter><filter id="an" filterUnits="userSpaceOnUse" height="137.276" width="60.589" x="0" y="596.801"><feOffset/><feGaussianBlur result="blur-63" stdDeviation="5"/><feFlood flood-opacity=".22"/><feComposite in2="blur-63" operator="in"/><feComposite in="SourceGraphic"/></filter><filter id="ao" filterUnits="userSpaceOnUse" height="56.953" width="176.026" x="26.083" y="697.24"><feOffset/><feGaussianBlur result="blur-64" stdDeviation="5"/><feFlood flood-opacity=".22"/><feComposite in2="blur-64" operator="in"/><feComposite in="SourceGraphic"/></filter><filter id="ap" filterUnits="userSpaceOnUse" height="52.447" width="52.447" x="4.667" y="701.752"><feOffset/><feGaussianBlur result="blur-65" stdDeviation="5"/><feFlood flood-opacity=".22"/><feComposite in2="blur-65" operator="in"/><feComposite in="SourceGraphic"/></filter><filter id="aq" filterUnits="userSpaceOnUse" height="57.104" width="57.105" x=".01" y="701.752"><feOffset/><feGaussianBlur result="blur-66" stdDeviation="5"/><feFlood flood-opacity=".22"/><feComposite in2="blur-66" operator="in"/><feComposite in="SourceGraphic"/></filter><filter id="ar" filterUnits="userSpaceOnUse" height="125.578" width="32.331" x="14.722" y="577.021"><feOffset/><feGaussianBlur result="blur-67" stdDeviation="5"/><feFlood flood-opacity=".22"/><feComposite in2="blur-67" operator="in"/><feComposite in="SourceGraphic"/></filter><filter id="as" filterUnits="userSpaceOnUse" height="32.331" width="125.578" x="55.348" y="711.804"><feOffset/><feGaussianBlur result="blur-68" stdDeviation="5"/><feFlood flood-opacity=".22"/><feComposite in2="blur-68" operator="in"/><feComposite in="SourceGraphic"/></filter><filter id="at" filterUnits="userSpaceOnUse" height="38.618" width="38.618" x="724.492" y="11.714"><feOffset/><feGaussianBlur result="blur-69" stdDeviation="5"/><feFlood flood-opacity=".22"/><feComposite in2="blur-69" operator="in"/><feComposite in="SourceGraphic"/></filter><filter id="au" filterUnits="userSpaceOnUse" height="38.618" width="38.618" x="564.085" y="11.714"><feOffset/><feGaussianBlur result="blur-70" stdDeviation="5"/><feFlood flood-opacity=".22"/><feComposite in2="blur-70" operator="in"/><feComposite in="SourceGraphic"/></filter><filter id="av" filterUnits="userSpaceOnUse" height="32.333" width="190.391" x="568.4" y="14.728"><feOffset/><feGaussianBlur result="blur-71" stdDeviation="5"/><feFlood flood-opacity=".22"/><feComposite in2="blur-71" operator="in"/><feComposite in="SourceGraphic"/></filter><filter id="aw" filterUnits="userSpaceOnUse" height="38.617" width="38.617" x="677.651" y="1.782"><feOffset/><feGaussianBlur result="blur-72" stdDeviation="5"/><feFlood flood-opacity=".22"/><feComposite in2="blur-72" operator="in"/><feComposite in="SourceGraphic"/></filter><filter id="ax" filterUnits="userSpaceOnUse" height="38.616" width="38.616" x="610.931" y="1.783"><feOffset/><feGaussianBlur result="blur-73" stdDeviation="5"/><feFlood flood-opacity=".22"/><feComposite in2="blur-73" operator="in"/><feComposite in="SourceGraphic"/></filter><filter id="ay" filterUnits="userSpaceOnUse" height="32.331" width="96.729" x="615.232" y="4.789"><feOffset/><feGaussianBlur result="blur-74" stdDeviation="5"/><feFlood flood-opacity=".22"/><feComposite in2="blur-74" operator="in"/><feComposite in="SourceGraphic"/></filter><filter id="az" filterUnits="userSpaceOnUse" height="38.618" width="38.618" x="564.085" y="709.227"><feOffset/><feGaussianBlur result="blur-75" stdDeviation="5"/><feFlood flood-opacity=".22"/><feComposite in2="blur-75" operator="in"/><feComposite in="SourceGraphic"/></filter><filter id="aA" filterUnits="userSpaceOnUse" height="38.618" width="38.618" x="724.492" y="709.227"><feOffset/><feGaussianBlur result="blur-76" stdDeviation="5"/><feFlood flood-opacity=".22"/><feComposite in2="blur-76" operator="in"/><feComposite in="SourceGraphic"/></filter><filter id="aB" filterUnits="userSpaceOnUse" height="32.331" width="190.391" x="568.4" y="712.495"><feOffset/><feGaussianBlur result="blur-77" stdDeviation="5"/><feFlood flood-opacity=".22"/><feComposite in2="blur-77" operator="in"/><feComposite in="SourceGraphic"/></filter><filter id="aC" filterUnits="userSpaceOnUse" height="38.616" width="38.616" x="610.931" y="719.16"><feOffset/><feGaussianBlur result="blur-78" stdDeviation="5"/><feFlood flood-opacity=".22"/><feComposite in2="blur-78" operator="in"/><feComposite in="SourceGraphic"/></filter><filter id="aD" filterUnits="userSpaceOnUse" height="38.617" width="38.617" x="677.651" y="719.159"><feOffset/><feGaussianBlur result="blur-79" stdDeviation="5"/><feFlood flood-opacity=".22"/><feComposite in2="blur-79" operator="in"/><feComposite in="SourceGraphic"/></filter><filter id="aE" filterUnits="userSpaceOnUse" height="32.331" width="96.729" x="615.232" y="722.434"><feOffset/><feGaussianBlur result="blur-80" stdDeviation="5"/><feFlood flood-opacity=".22"/><feComposite in2="blur-80" operator="in"/><feComposite in="SourceGraphic"/></filter><g filter="url(#b)" transform="translate(-.001)"><path d="m99.945 73.725h-30.57v-2.33h28.237v-24.622h117.788v2.333h-115.455z" fill="url(#a)" transform="translate(-28.29 -27.1)"/></g><g filter="url(#d)" transform="translate(-.001)"><path d="m0 0h6.093v6.093h-6.093z" fill="url(#c)" transform="matrix(-.71 .71 -.71 -.71 35.32 165.93)"/></g><g filter="url(#e)" transform="translate(-.001)"><path d="m0 0h6.092v6.092h-6.092z" fill="url(#a)" transform="matrix(0 1 -1 0 27.04 20.83)"/></g><g filter="url(#g)" transform="translate(-.001)"><path d="m0 0h6.094v6.092h-6.094z" fill="url(#f)" transform="matrix(0 1 -1 0 51.64 45.43)"/></g><g filter="url(#h)" transform="translate(-.001)"><path d="m0 0h6.093v6.093h-6.093z" fill="url(#c)" transform="matrix(-.71 .71 -.71 -.71 171.27 30.88)"/></g><g filter="url(#i)" transform="translate(-.001)"><path d="m0 0h6.093v6.093h-6.093z" fill="url(#c)" transform="matrix(-.70710678 .70710678 -.70710678 -.70710678 191.42 20.83)"/></g><g filter="url(#j)" transform="translate(-.001)"><path d="m0 0h6.093v6.093h-6.093z" fill="url(#c)" transform="matrix(-.70710678 .70710678 -.70710678 -.70710678 25.26 187.12)"/></g><g filter="url(#k)" transform="translate(-.001)"><path d="m90.8 70.426h-22.463v-22.447h22.463zm-20.144-2.319h17.81v-17.789h-17.81z" fill="url(#f)" transform="translate(-48.55 -3.56)"/></g><g filter="url(#l)" transform="translate(-.001)"><path d="m91.99 69.22h-22.447v-22.447h22.447zm-20.108-2.339h17.79v-17.789h-17.79z" fill="url(#f)" transform="translate(-25.01 -27.09)"/></g><g filter="url(#m)" transform="translate(-.001)"><path d="m0 0h2.331v29.421h-2.331z" fill="url(#a)" transform="translate(39.92 16.17)"/></g><g filter="url(#n)" transform="translate(-.001)"><path d="m70.434 155.037h-2.334v-107.277h30.592v2.333h-28.258z" fill="url(#a)" transform="translate(-53.1 -7.84)"/></g><g filter="url(#o)" transform="translate(-.001)"><path d="m71.649 77.134h-2.331v-30.589h107.257v2.333h-104.926z" fill="url(#a)" transform="translate(-29.4 -31.54)"/></g><g filter="url(#p)" transform="translate(-.001)"><path d="m70.668 193.843h-2.331v-117.771h24.64v-28.255h2.331v30.588h-24.64z" fill="url(#a)" transform="translate(-48.55 -6.73)"/></g><g filter="url(#q)" transform="translate(-.001)"><path d="m90.8 69.22h-22.463v-22.447h22.463zm-20.144-2.339h17.81v-17.789h-17.81z" fill="url(#f)" transform="translate(-48.55 -27.09)"/></g><g filter="url(#r)" transform="translate(-.001)"><path d="m95.255 73.67h-27.146v-27.125h27.146zm-24.807-2.339h22.468v-22.447h-22.468z" fill="url(#f)" transform="translate(-53 -31.54)"/></g><g filter="url(#s)" transform="translate(-.001)"><path d="m0 0h95.58v2.333h-95.58z" fill="url(#a)" transform="translate(71.39 29.73)"/></g><g filter="url(#t)" transform="translate(-.001)"><path d="m0 0h2.333v95.58h-2.333z" fill="url(#a)" transform="translate(29.84 70.35)"/></g><g filter="url(#u)" transform="translate(-.001)"><path d="m121.839 193.843h-2.331v-115.438h-24.619v-30.588h2.331v28.255h24.62z" fill="url(#a)" transform="translate(1185.7 -6.73)"/></g><g filter="url(#v)" transform="translate(-.001)"><path d="m0 0h6.093v6.093h-6.093z" fill="url(#c)" transform="matrix(-.71 -.71 .71 -.71 1161.28 35.33)"/></g><g filter="url(#w)" transform="translate(-.001)"><path d="m0 0h6.092v6.094h-6.092z" fill="url(#a)" transform="matrix(-1 0 0 -1 1306.38 27.05)"/></g><g filter="url(#x)" transform="translate(-.001)"><path d="m0 0h6.092v6.094h-6.092z" fill="url(#a)" transform="matrix(-1 0 0 -1 1281.79 51.65)"/></g><g filter="url(#y)" transform="translate(-.001)"><path d="m0 0h6.092v6.092h-6.092z" fill="url(#c)" transform="matrix(-.71 -.71 .71 -.71 1296.33 171.28)"/></g><g filter="url(#z)" transform="translate(-.001)"><path d="m0 0h6.093v6.093h-6.093z" fill="url(#c)" transform="matrix(-.70710678 -.70710678 .70710678 -.70710678 1306.38 191.43)"/></g><g filter="url(#A)" transform="translate(-.001)"><path d="m0 0h6.093v6.093h-6.093z" fill="url(#c)" transform="matrix(-.71 -.71 .71 -.71 1140.09 25.27)"/></g><g filter="url(#B)" transform="translate(-.001)"><path d="m116.37 69.245h-22.47v-22.467h22.47zm-20.149-2.318h17.81v-17.81h-17.81z" fill="url(#f)" transform="translate(1166.44 -27)"/></g><g filter="url(#C)" transform="translate(-.001)"><path d="m117.555 70.453h-22.447v-22.468h22.447zm-20.108-2.34h17.789v-17.789h-17.789z" fill="url(#f)" transform="translate(1189.98 -3.44)"/></g><g filter="url(#D)" transform="translate(-.001)"><path d="m0 0h29.403v2.333h-29.403z" fill="url(#a)" transform="translate(1281.63 39.92)"/></g><g filter="url(#E)" transform="translate(-.001)"><path d="m197.265 77.134h-2.331v-28.256h-104.946v-2.333h107.277z" fill="url(#a)" transform="translate(1090.04 -31.54)"/></g><g filter="url(#F)" transform="translate(-.001)"><path d="m125.508 155.037h-2.331v-104.944h-28.237v-2.333h30.568z" fill="url(#a)" transform="translate(1186.69 -7.84)"/></g><g filter="url(#G)" transform="translate(-.001)"><path d="m234.088 73.752h-30.588v-24.643h-115.458v-2.331h117.788v24.64h28.258z" fill="url(#a)" transform="translate(1052.05 -26.99)"/></g><g filter="url(#H)" transform="translate(-.001)"><path d="m117.555 69.245h-22.447v-22.467h22.447zm-20.108-2.318h17.789v-17.81h-17.789z" fill="url(#f)" transform="translate(1189.98 -27)"/></g><g filter="url(#I)" transform="translate(-.001)"><path d="m122.233 73.676h-27.125v-27.125h27.125zm-24.786-2.318h22.447v-22.468h-22.447z" fill="url(#f)" transform="translate(1189.98 -31.43)"/></g><g filter="url(#J)" transform="translate(-.001)"><path d="m0 0h2.333v95.578h-2.333z" fill="url(#a)" transform="translate(1295.15 71.4)"/></g><g filter="url(#K)" transform="translate(-.001)"><path d="m0 0h95.578v2.331h-95.578z" fill="url(#a)" transform="translate(1161.29 29.85)"/></g><g filter="url(#L)" transform="translate(-.001)"><path d="m205.83 90.884h-117.788v-2.331h115.458v-24.64h30.589v2.331h-28.259z" fill="url(#a)" transform="translate(1052.05 648.45)"/></g><g filter="url(#M)" transform="translate(-.001)"><path d="m0 0h6.092v6.092h-6.092z" fill="url(#c)" transform="matrix(.71 -.71 .71 .71 1291.88 593.06)"/></g><g filter="url(#N)" transform="translate(-.001)"><path d="m0 0h6.092v6.092h-6.092z" fill="url(#a)" transform="matrix(0 -1 1 0 1300.16 738.16)"/></g><g filter="url(#O)" transform="translate(-.001)"><path d="m0 0h6.092v6.092h-6.092z" fill="url(#a)" transform="matrix(0 -1 1 0 1275.56 713.56)"/></g><g filter="url(#P)" transform="translate(-.001)"><path d="m0 0h6.093v6.093h-6.093z" fill="url(#c)" transform="matrix(.70710678 -.70710678 .70710678 .70710678 1155.93 728.11)"/></g><g filter="url(#Q)" transform="translate(-.001)"><path d="m0 0h6.094v6.094h-6.094z" fill="url(#c)" transform="matrix(.70710678 -.70710678 .70710678 .70710678 1135.78 738.16)"/></g><g filter="url(#R)" transform="translate(-.001)"><path d="m0 0h6.093v6.093h-6.093z" fill="url(#c)" transform="matrix(.70710678 -.70710678 .70710678 .70710678 1301.94 571.86)"/></g><g filter="url(#S)" transform="translate(-.001)"><path d="m117.55 85.394h-22.45v-22.468h22.45zm-20.128-2.34h17.789v-17.809h-17.789z" fill="url(#f)" transform="translate(1189.88 629.18)"/></g><g filter="url(#T)" transform="translate(-.001)"><path d="m116.343 86.6h-22.443v-22.468h22.447zm-20.128-2.319h17.785v-17.81h-17.785z" fill="url(#f)" transform="translate(1166.32 652.72)"/></g><g filter="url(#U)" transform="translate(-.001)"><path d="m0 0h2.331v29.423h-2.331z" fill="url(#a)" transform="translate(1284.97 713.41)"/></g><g filter="url(#V)" transform="translate(-.001)"><path d="m125.508 166.287h-30.568v-2.331h28.237v-104.944h2.331z" fill="url(#a)" transform="translate(1186.69 552.79)"/></g><g filter="url(#W)" transform="translate(-.001)"><path d="m197.265 94.552h-107.277v-2.33h104.946v-28.258h2.331z" fill="url(#a)" transform="translate(1090.04 649.44)"/></g><g filter="url(#X)" transform="translate(-.001)"><path d="m97.214 203.112h-2.331v-30.588h24.617v-115.458h2.333v117.791h-24.619z" fill="url(#a)" transform="translate(1185.58 514.8)"/></g><g filter="url(#Y)" transform="translate(-.001)"><path d="m117.55 86.6h-22.45v-22.468h22.45zm-20.128-2.319h17.789v-17.81h-17.789z" fill="url(#f)" transform="translate(1189.88 652.72)"/></g><g filter="url(#Z)" transform="translate(-.001)"><path d="m122.208 91.278h-27.108v-27.146h27.1zm-24.786-2.339h22.447v-22.468h-22.447z" fill="url(#f)" transform="translate(1189.88 652.72)"/></g><g filter="url(#aa)" transform="translate(-.001)"><path d="m0 0h95.58v2.331h-95.58z" fill="url(#a)" transform="translate(1160.25 726.92)"/></g><g filter="url(#ab)" transform="translate(-.001)"><path d="m0 0h2.333v95.578h-2.333z" fill="url(#a)" transform="translate(1295.03 593.07)"/></g><g filter="url(#ac)" transform="translate(-.001)"><path d="m95.284 203.112h-2.333v-28.255h-24.62v-117.791h2.331v115.458h24.622z" fill="url(#a)" transform="translate(-48.67 514.8)"/></g><g filter="url(#ad)" transform="translate(-.001)"><path d="m0 0h6.092v6.092h-6.092z" fill="url(#c)" transform="matrix(.71 .71 -.71 .71 165.92 723.66)"/></g><g filter="url(#ae)" transform="translate(-.001)"><path d="m0 0h6.092v6.092h-6.092z" fill="url(#a)" transform="translate(20.82 731.94)"/></g><g filter="url(#af)" transform="translate(-.001)"><path d="m0 0h6.092v6.092h-6.092z" fill="url(#a)" transform="translate(45.42 707.34)"/></g><g filter="url(#ag)" transform="translate(-.001)"><path d="m0 0h6.094v6.094h-6.094z" fill="url(#c)" transform="matrix(.70710678 .70710678 -.70710678 .70710678 30.87 587.7)"/></g><g filter="url(#ah)" transform="translate(-.001)"><path d="m0 0h6.094v6.094h-6.094z" fill="url(#c)" transform="matrix(.70710678 .70710678 -.70710678 .70710678 20.82 567.56)"/></g><g filter="url(#ai)" transform="translate(-.001)"><path d="m0 0h6.094v6.094h-6.094z" fill="url(#c)" transform="matrix(.70710678 .70710678 -.70710678 .70710678 187.12 733.72)"/></g><g filter="url(#aj)" transform="translate(-.001)"><path d="m91.985 86.574h-22.447v-22.447h22.447zm-20.128-2.339h17.789v-17.789h-17.789z" fill="url(#f)" transform="translate(-25.1 652.62)"/></g><g filter="url(#ak)" transform="translate(-.001)"><path d="m90.778 85.367h-22.447v-22.447h22.447zm-20.128-2.339h17.789v-17.769h-17.789z" fill="url(#f)" transform="translate(-48.66 629.07)"/></g><g filter="url(#al)" transform="translate(-.001)"><path d="m0 0h29.423v2.331h-29.423z" fill="url(#a)" transform="translate(16.17 716.75)"/></g><g filter="url(#am)" transform="translate(-.001)"><path d="m176.575 94.552h-107.257v-30.588h2.331v28.258h104.926z" fill="url(#a)" transform="translate(-29.4 649.44)"/></g><g filter="url(#an)" transform="translate(-.001)"><path d="m98.692 166.287h-30.592v-107.275h2.331v104.945h28.261z" fill="url(#a)" transform="translate(-53.1 552.79)"/></g><g filter="url(#ao)" transform="translate(-.001)"><path d="m215.4 90.86h-117.788v-24.62h-28.237v-2.333h30.57v24.622h115.455z" fill="url(#a)" transform="translate(-28.29 648.33)"/></g><g filter="url(#ap)" transform="translate(-.001)"><path d="m90.778 86.574h-22.447v-22.447h22.447zm-20.128-2.339h17.789v-17.789h-17.789z" fill="url(#f)" transform="translate(-48.66 652.62)"/></g><g filter="url(#aq)" transform="translate(-.001)"><path d="m95.209 91.232h-27.109v-27.1h27.1zm-24.786-2.339h22.447v-22.447h-22.447z" fill="url(#f)" transform="translate(-53.09 652.62)"/></g><g filter="url(#ar)" transform="translate(-.001)"><path d="m0 0h2.331v95.578h-2.331z" fill="url(#a)" transform="translate(29.72 592.02)"/></g><g filter="url(#as)" transform="translate(-.001)"><path d="m0 0h95.578v2.331h-95.578z" fill="url(#a)" transform="translate(70.35 726.8)"/></g><g filter="url(#at)" transform="translate(-.001)"><path d="m0 0h6.094v6.094h-6.094z" fill="url(#c)" transform="matrix(-.70710678 -.70710678 .70710678 -.70710678 743.8 35.33)"/></g><g filter="url(#au)" transform="translate(-.001)"><path d="m0 0h6.094v6.094h-6.094z" fill="url(#c)" transform="matrix(-.70710678 -.70710678 .70710678 -.70710678 583.39 35.33)"/></g><g filter="url(#av)" transform="translate(-.001)"><path d="m0 0h160.391v2.333h-160.391z" fill="url(#a)" transform="translate(583.4 29.73)"/></g><g filter="url(#aw)" transform="translate(-.001)"><path d="m0 0h6.093v6.093h-6.093z" fill="url(#c)" transform="matrix(-.71 -.71 .71 -.71 696.96 25.4)"/></g><g filter="url(#ax)" transform="translate(-.001)"><path d="m0 0h6.092v6.092h-6.092z" fill="url(#c)" transform="matrix(-.71 -.71 .71 -.71 630.24 25.4)"/></g><g filter="url(#ay)" transform="translate(-.001)"><path d="m0 0h66.729v2.331h-66.729z" fill="url(#a)" transform="translate(630.23 19.79)"/></g><g filter="url(#az)" transform="translate(-.001)"><path d="m0 0h6.094v6.094h-6.094z" fill="url(#c)" transform="matrix(.70710678 .70710678 -.70710678 .70710678 583.39 724.23)"/></g><g filter="url(#aA)" transform="translate(-.001)"><path d="m0 0h6.094v6.094h-6.094z" fill="url(#c)" transform="matrix(.70710678 .70710678 -.70710678 .70710678 743.8 724.23)"/></g><g filter="url(#aB)" transform="translate(-.001)"><path d="m0 0h160.391v2.331h-160.391z" fill="url(#a)" transform="translate(583.4 727.49)"/></g><g filter="url(#aC)" transform="translate(-.001)"><path d="m0 0h6.092v6.092h-6.092z" fill="url(#c)" transform="matrix(.70710678 .70710678 -.70710678 .70710678 630.24 734.16)"/></g><g filter="url(#aD)" transform="translate(-.001)"><path d="m0 0h6.093v6.093h-6.093z" fill="url(#c)" transform="matrix(.71 .71 -.71 .71 696.96 734.16)"/></g><g filter="url(#aE)" transform="translate(-.001)"><path d="m0 0h66.729v2.331h-66.729z" fill="url(#a)" transform="translate(630.23 737.43)"/></g></svg>