<svg xmlns="http://www.w3.org/2000/svg" width="168.693" height="170.446" viewBox="0 0 168.693 170.446">
  <g id="Group_177" data-name="Group 177" transform="translate(-671.165 -647)">
    <g id="Group_164" data-name="Group 164" transform="translate(671.623 647)">
      <g id="Group_163" data-name="Group 163" transform="translate(0 0)">
        <path id="Path_3775" data-name="Path 3775" d="M686.493,749.344a12.2,12.2,0,0,1-4.236-.719c-6.656-2.443-9.686-10.308-9.264-24.046,1.108-36.063,11.747-63.593,28.462-73.641a25.824,25.824,0,0,1,25.46-1.107c14.6,7.19,39.882,37.545,58.341,59.709,6.378,7.659,11.887,14.273,15.827,18.589,9.589,10.5,20.605,16.151,26.792,13.736,5.508-2.151,6.629-10.531,6.6-17.182-.183-41.55-11.759-58.58-21.438-65.55a26.935,26.935,0,0,0-24.392-3.874c-8.306,2.736-16.72,13.378-16.8,13.485a2.939,2.939,0,0,1-4.629-3.622c.388-.495,9.587-12.149,19.594-15.446a32.746,32.746,0,0,1,29.665,4.688c10.787,7.768,23.686,26.268,23.88,70.293.068,15.385-5.585,20.827-10.339,22.683-10.531,4.109-24.5-5.645-33.27-15.247-4.031-4.415-9.579-11.077-16-18.791-18.121-21.759-42.939-51.56-56.42-58.2a19.872,19.872,0,0,0-19.837.872c-14.994,9.014-24.57,34.728-25.616,68.784-.227,7.38.528,16.555,5.414,18.348,11.673,4.284,42.652-27.55,59.44-48.621a2.939,2.939,0,0,1,4.6,3.662,351.5,351.5,0,0,1-24.861,27.517C707.314,741.539,695.151,749.344,686.493,749.344Z" transform="translate(-672.954 -647)" fill="#fff"/>
      </g>
    </g>
    <g id="Group_171" data-name="Group 171" transform="translate(696.72 679.816)">
      <g id="Group_167" data-name="Group 167" transform="translate(0 0.193)">
        <g id="Group_165" data-name="Group 165" transform="translate(7.98)">
          <path id="Path_3776" data-name="Path 3776" d="M802.2,775.982v6.283l3.394,4.405,3.394-4.405v-6.283Z" transform="translate(-802.202 -775.982)" fill="#ff9d03"/>
          <path id="Path_3777" data-name="Path 3777" d="M809.273,834.079V827.8l-3.394-4.405-3.394,4.405v6.283Z" transform="translate(-802.412 -811.258)" fill="#ff9d03"/>
        </g>
        <g id="Group_166" data-name="Group 166" transform="translate(0 7.98)">
          <path id="Path_3778" data-name="Path 3778" d="M829.117,807.164h-6.283l-4.405,3.394,4.405,3.394h6.283Z" transform="translate(-806.295 -807.164)" fill="#ff9d03"/>
          <path id="Path_3779" data-name="Path 3779" d="M771.019,814.235H777.3l4.405-3.394-4.405-3.394h-6.283Z" transform="translate(-771.019 -807.374)" fill="#ff9d03"/>
        </g>
      </g>
      <g id="Group_170" data-name="Group 170" transform="translate(92.363 0)">
        <g id="Group_168" data-name="Group 168" transform="translate(9.296)">
          <circle id="Ellipse_1" data-name="Ellipse 1" cx="3.941" cy="3.941" r="3.941" fill="#ff9d03"/>
          <circle id="Ellipse_2" data-name="Ellipse 2" cx="3.941" cy="3.941" r="3.941" transform="translate(0 15.326)" fill="#ff9d03"/>
        </g>
        <g id="Group_169" data-name="Group 169" transform="translate(0 6.031)">
          <circle id="Ellipse_3" data-name="Ellipse 3" cx="3.941" cy="3.941" r="3.941" transform="translate(15.326 5.574) rotate(-45)" fill="#ff9d03"/>
          <circle id="Ellipse_4" data-name="Ellipse 4" cx="3.941" cy="3.941" r="3.941" transform="translate(0 5.574) rotate(-45)" fill="#ff9d03"/>
        </g>
      </g>
    </g>
    <g id="Group_172" data-name="Group 172" transform="translate(745.911 712.932)">
      <path id="Path_3780" data-name="Path 3780" d="M1027.841,904.621a4.658,4.658,0,1,0,4.658,4.658A4.658,4.658,0,0,0,1027.841,904.621Zm1.164,7.973a2.688,2.688,0,1,1,2.687-2.687A2.688,2.688,0,0,1,1029.005,912.594Z" transform="translate(-1007.839 -904.621)" fill="#fff"/>
      <path id="Path_3781" data-name="Path 3781" d="M967.884,904.621a4.658,4.658,0,1,0,4.658,4.658A4.658,4.658,0,0,0,967.884,904.621Zm-.627,8.51a2.687,2.687,0,1,1,2.687-2.687A2.687,2.687,0,0,1,967.257,913.131Z" transform="translate(-963.226 -904.621)" fill="#fff"/>
    </g>
    <g id="Group_176" data-name="Group 176" transform="translate(671.165 763.702)">
      <g id="Group_174" data-name="Group 174" transform="translate(45.957 43.369)">
        <path id="Path_3789" data-name="Path 3789" d="M855.439,1320.97a6.211,6.211,0,0,0,.693-.036,4.377,4.377,0,0,0,.6-.107,3.99,3.99,0,0,0,.527-.172q.247-.1.495-.231v-2.055H856.3a.277.277,0,0,1-.2-.072.234.234,0,0,1-.075-.176v-.716h2.861v3.577a5.1,5.1,0,0,1-.731.442,4.945,4.945,0,0,1-.813.316,5.9,5.9,0,0,1-.927.189,8.682,8.682,0,0,1-1.073.062,4.844,4.844,0,0,1-1.86-.348,4.272,4.272,0,0,1-1.456-.976,4.432,4.432,0,0,1-.953-1.505,5.294,5.294,0,0,1-.341-1.932,5.418,5.418,0,0,1,.335-1.944,4.179,4.179,0,0,1,2.458-2.478,5.376,5.376,0,0,1,1.974-.345,6.116,6.116,0,0,1,1.027.081,4.81,4.81,0,0,1,.881.234,4.115,4.115,0,0,1,.751.371,4.619,4.619,0,0,1,.644.491l-.358.572a.329.329,0,0,1-.286.176.461.461,0,0,1-.228-.072q-.162-.091-.364-.221a3.063,3.063,0,0,0-.491-.251,3.916,3.916,0,0,0-.682-.2,4.477,4.477,0,0,0-.933-.084,3.786,3.786,0,0,0-1.424.257,3.023,3.023,0,0,0-1.086.735,3.253,3.253,0,0,0-.689,1.158,4.549,4.549,0,0,0-.241,1.525,4.625,4.625,0,0,0,.25,1.577,3.326,3.326,0,0,0,.706,1.174,3.038,3.038,0,0,0,1.079.735A3.632,3.632,0,0,0,855.439,1320.97Z" transform="translate(-850.737 -1312.464)" fill="#fff"/>
        <path id="Path_3790" data-name="Path 3790" d="M913.546,1322.19h-.976a.418.418,0,0,1-.273-.085.514.514,0,0,1-.156-.215l-.872-2.25h-4.181l-.871,2.25a.509.509,0,0,1-.156.208.415.415,0,0,1-.273.091h-.976l3.727-9.319h1.281Zm-6.107-3.46h3.479l-1.463-3.791a7.077,7.077,0,0,1-.28-.878q-.071.267-.14.491c-.046.15-.09.281-.133.393Z" transform="translate(-890.973 -1312.767)" fill="#fff"/>
        <path id="Path_3791" data-name="Path 3791" d="M967.086,1319.15c.046.115.09.231.134.348q.064-.182.136-.348t.162-.335l3.154-5.729a.374.374,0,0,1,.175-.182.81.81,0,0,1,.26-.033h.93v9.319h-1.106v-6.848q0-.137.007-.292t.019-.319l-3.193,5.827a.5.5,0,0,1-.456.293h-.182a.5.5,0,0,1-.455-.293l-3.265-5.846c.013.113.023.223.029.332s.01.208.01.3v6.848h-1.106v-9.319h.93a.806.806,0,0,1,.26.033.373.373,0,0,1,.175.182l3.219,5.736A2.45,2.45,0,0,1,967.086,1319.15Z" transform="translate(-933.78 -1312.767)" fill="#fff"/>
        <path id="Path_3792" data-name="Path 3792" d="M1030.079,1322.19h-1.262v-9.319h1.262Z" transform="translate(-983.242 -1312.767)" fill="#fff"/>
        <path id="Path_3793" data-name="Path 3793" d="M1063.208,1312.913a.652.652,0,0,1,.185.172l5.4,7.024c-.013-.113-.022-.222-.026-.329s-.007-.209-.007-.309v-6.6h1.106v9.319h-.637a.537.537,0,0,1-.25-.052.626.626,0,0,1-.2-.176l-5.391-7.017q.013.163.02.319c0,.1.007.2.007.286v6.64h-1.106v-9.319h.65A.567.567,0,0,1,1063.208,1312.913Z" transform="translate(-1008.161 -1312.767)" fill="#fff"/>
        <path id="Path_3794" data-name="Path 3794" d="M1122.1,1320.97a6.21,6.21,0,0,0,.692-.036,4.375,4.375,0,0,0,.6-.107,4,4,0,0,0,.527-.172q.247-.1.494-.231v-2.055h-1.444a.277.277,0,0,1-.2-.072.235.235,0,0,1-.075-.176v-.716h2.861v3.577a5.126,5.126,0,0,1-.732.442,4.945,4.945,0,0,1-.813.316,5.9,5.9,0,0,1-.927.189,8.688,8.688,0,0,1-1.073.062,4.844,4.844,0,0,1-1.86-.348,4.273,4.273,0,0,1-1.457-.976,4.432,4.432,0,0,1-.953-1.505,5.3,5.3,0,0,1-.341-1.932,5.418,5.418,0,0,1,.335-1.944,4.181,4.181,0,0,1,2.458-2.478,5.377,5.377,0,0,1,1.974-.345,6.111,6.111,0,0,1,1.027.081,4.8,4.8,0,0,1,.881.234,4.1,4.1,0,0,1,.751.371,4.6,4.6,0,0,1,.644.491l-.358.572a.329.329,0,0,1-.286.176.461.461,0,0,1-.228-.072q-.162-.091-.364-.221a3.059,3.059,0,0,0-.491-.251,3.931,3.931,0,0,0-.683-.2,4.474,4.474,0,0,0-.933-.084,3.787,3.787,0,0,0-1.424.257,3.022,3.022,0,0,0-1.086.735,3.256,3.256,0,0,0-.689,1.158,4.546,4.546,0,0,0-.24,1.525,4.617,4.617,0,0,0,.25,1.577,3.32,3.32,0,0,0,.705,1.174,3.04,3.04,0,0,0,1.08.735A3.633,3.633,0,0,0,1122.1,1320.97Z" transform="translate(-1049.153 -1312.464)" fill="#fff"/>
      </g>
      <g id="Group_175" data-name="Group 175" transform="translate(19.549 42.222)">
        <path id="Path_3795" data-name="Path 3795" d="M753.608,1307.981l1.43,4.4h4.627l-3.744,2.72,1.43,4.4-3.744-2.72-3.744,2.72,1.43-4.4-3.744-2.72h4.627Z" transform="translate(-747.551 -1307.981)" fill="#fff"/>
        <path id="Path_3796" data-name="Path 3796" d="M1211.17,1307.981l1.43,4.4h4.627l-3.744,2.72,1.43,4.4-3.743-2.72-3.744,2.72,1.43-4.4-3.744-2.72h4.627Z" transform="translate(-1088.012 -1307.981)" fill="#fff"/>
      </g>
      <path id="Path_3797" data-name="Path 3797" d="M29.627-91.514a12.163,12.163,0,0,1-8.543,3.057q-6.438,0-10.122-4.13-3.684-4.15-3.684-11.377,0-7.814,4.191-12.045a12.487,12.487,0,0,1,9.272-3.684q7.531,0,11.013,4.94a10.694,10.694,0,0,1,2.065,5.567H27.582a8.422,8.422,0,0,0-1.559-3.239,6.34,6.34,0,0,0-5.041-1.943,6.249,6.249,0,0,0-5.365,2.743q-1.964,2.743-1.964,7.764t2.075,7.521A6.557,6.557,0,0,0,21-93.842a6.032,6.032,0,0,0,5-2.146,9.321,9.321,0,0,0,1.579-3.462h6.174A13.419,13.419,0,0,1,29.627-91.514Zm26.358-3.907H44.992l-2.065,6.134H36.409l10.648-29.84H54.1l10.567,29.84H57.908Zm-1.741-5.142L50.519-112.3l-3.846,11.742ZM92.586-89.287H86.351l-12.187-21.2v21.2h-5.81v-29.84h6.539L86.776-98.3v-20.831h5.81Zm3.6-29.84h6.66l6.478,22.653,6.539-22.653h6.478l-10.183,29.84h-5.891Zm44.274,23.706H129.47l-2.065,6.134h-6.519l10.648-29.84h7.045l10.567,29.84h-6.762Zm-1.741-5.142L135-112.3l-3.846,11.742ZM163.764-93.6a10.98,10.98,0,0,0,3.583-.486,3.463,3.463,0,0,0,2.611-3.462,2.554,2.554,0,0,0-1.3-2.288,13.932,13.932,0,0,0-4.069-1.4l-3.158-.709A19.957,19.957,0,0,1,155-104.227q-3.016-2.065-3.016-6.458a8.624,8.624,0,0,1,2.915-6.66Q157.812-120,163.46-120a13.02,13.02,0,0,1,8.047,2.5A8.927,8.927,0,0,1,175-110.239h-5.992a4.281,4.281,0,0,0-2.348-3.826,7.875,7.875,0,0,0-3.624-.749,6.766,6.766,0,0,0-3.846.972,3.094,3.094,0,0,0-1.437,2.713,2.568,2.568,0,0,0,1.417,2.389,17.346,17.346,0,0,0,3.887,1.235l5.142,1.235a13.294,13.294,0,0,1,5.1,2.166,7.3,7.3,0,0,1,2.672,6.093,8.6,8.6,0,0,1-3.128,6.792q-3.128,2.7-8.837,2.7-5.83,0-9.171-2.662A8.846,8.846,0,0,1,151.5-98.5h5.952a6.127,6.127,0,0,0,1.113,3.057Q160.079-93.6,163.764-93.6Z" transform="translate(-7.277 119.997)" fill="#fff"/>
    </g>
  </g>
</svg>
