<svg xmlns="http://www.w3.org/2000/svg" width="431.126" height="143.372" viewBox="0 0 431.126 143.372">
  <g id="Group_181" data-name="Group 181" transform="translate(-157.027 -175.857)">
    <path id="Path_3798" data-name="Path 3798" d="M164.85,288.912V245.3a27.542,27.542,0,0,1,27.542-27.542h0A27.542,27.542,0,0,1,219.934,245.3v43.614a27.541,27.541,0,0,1-27.542,27.541h0A27.541,27.541,0,0,1,164.85,288.912Z" fill="#85f1f9"/>
    <path id="Path_3799" data-name="Path 3799" d="M222.865,247.013V203.4a27.542,27.542,0,0,1,27.542-27.541h0A27.541,27.541,0,0,1,277.948,203.4v43.615a27.541,27.541,0,0,1-27.541,27.542h0A27.542,27.542,0,0,1,222.865,247.013Z" fill="#ffc2f8"/>
    <rect id="Rectangle_30" data-name="Rectangle 30" width="294.361" height="55.083" rx="27.542" transform="translate(572.31 269.415) rotate(-180)" fill="#fff"/>
    <g id="Group_178" data-name="Group 178">
      <path id="Path_3800" data-name="Path 3800" d="M284.156,235.581a29.036,29.036,0,0,0-2.511-6.616,34.267,34.267,0,0,0-60.224,0,34.279,34.279,0,1,0-30.113,50.653,4.249,4.249,0,0,0,0-8.5,25.785,25.785,0,1,1,25.785-25.786,4.233,4.233,0,0,0,.19,1.192,34.316,34.316,0,0,0,34.25,33.091,4.249,4.249,0,0,0,0-8.5,25.785,25.785,0,1,1,25.784-25.786C277.317,245.581,284.334,236.9,284.156,235.581Z" fill="#353c56"/>
      <path id="Path_3801" data-name="Path 3801" d="M201.716,251.108h-7.481v7.481a4.248,4.248,0,1,1-8.5,0v-7.481h-7.48a4.248,4.248,0,0,1,0-8.5h7.481v-7.48a4.248,4.248,0,1,1,8.5,0v7.48h7.48a4.249,4.249,0,0,1,0,8.5Z" fill="#353c56"/>
      <path id="Path_3802" data-name="Path 3802" d="M235.683,239.366l11.436,19.8a3.4,3.4,0,0,0,5.885,0l11.56-20.019a3.351,3.351,0,0,0,.485-1.733,2.932,2.932,0,0,0-.017-.324,3.228,3.228,0,0,0-.437-1.32,2.7,2.7,0,0,0-2.058-1.352c-.312-.085-24.158-.117-24.2-.114a3.137,3.137,0,0,0-3.277,3.087A3.39,3.39,0,0,0,235.683,239.366Zm20.081.882-5.7,9.877-5.7-9.877Z" fill="#353c56"/>
      <path id="Path_3803" data-name="Path 3803" d="M198.94,271.428a4.376,4.376,0,1,1,4.019,4.706A4.376,4.376,0,0,1,198.94,271.428Z" fill="#353c56"/>
    </g>
    <text id="Gaming" transform="translate(271.66 270.502)" fill="#353c56" font-size="74.478" font-family="Helvetica"><tspan x="0" y="0">Gaming</tspan></text>
    <text id="Gaming_Lifestyle" data-name="Gaming Lifestyle" transform="translate(285.948 313.229)" fill="#d8d8d8" font-size="25.444" font-family="Helvetica"><tspan x="0" y="0">GAMING LIFESTYLE</tspan></text>
    <g id="Group_179" data-name="Group 179">
      <path id="Path_3804" data-name="Path 3804" d="M500.105,282.475H274.745a4,4,0,0,1,0-8h225.36a4,4,0,0,1,0,8Z" fill="#fff"/>
    </g>
    <g id="Group_180" data-name="Group 180">
      <path id="Path_3805" data-name="Path 3805" d="M548.489,282.475a4,4,0,0,1,0-8,31.669,31.669,0,0,0,12.323-60.84,4,4,0,0,1,3.117-7.369,39.67,39.67,0,0,1-15.44,76.209Z" fill="#fff"/>
    </g>
  </g>
</svg>
