<svg xmlns="http://www.w3.org/2000/svg" width="513" height="88.94" viewBox="0 0 513 88.94">
  <g id="Group_190" data-name="Group 190" transform="translate(-23.7 -212.264)">
    <g id="Group_189" data-name="Group 189" transform="translate(23.7 202.784)">
      <path id="Path_3810" data-name="Path 3810" d="M424.443,226.627h4.431a38.112,38.112,0,0,1,38.113,38.111h0a38.113,38.113,0,0,1-38.113,38.113H345.263Z" transform="translate(46.013 -207.043)" fill="#ffec00"/>
      <path id="Path_3817" data-name="Path 3817" d="M30,1.2c9.675,0,17.475-2.625,23.85-10.425L43.425-19.2c-3.6,4.35-7.575,6.075-11.7,6.075-6.525,0-10.8-4.125-10.8-10.275,0-9.375,5.85-15.975,14.175-15.975a11.476,11.476,0,0,1,10.5,6.15L58.35-43.2c-3.825-6.75-12.075-10.5-22.125-10.5C16.8-53.7,3.075-40.725,3.075-22.275,3.075-8.325,13.725,1.2,30,1.2ZM95.175,0H112.8L100.35-52.5H82.95L49.5,0H68.175l5.25-9.15H93.45ZM80.7-21.9l7.725-13.425L90.975-21.9Zm79.95-30.6-4.875,24.45L140.7-52.5H126.15L115.65,0H132.9l4.875-24.45L152.85,0H167.4l10.5-52.5Zm63.75,0L205.425-21.9,198.9-52.5H180.75L192.45,0h17.4l32.7-52.5ZM271.875,0H289.5L277.05-52.5h-17.4L226.2,0h18.675l5.25-9.15H270.15ZM257.4-21.9l7.725-13.425,2.55,13.425ZM313.2,1.2c16.35,0,26.55-7.875,26.55-19.575,0-16.2-25.05-12.525-25.05-18.3,0-1.8,2.55-3.525,7.725-3.525a27.31,27.31,0,0,1,14.4,3.9L343.2-49.2c-4.875-2.925-11.85-4.5-19.65-4.5C306.975-53.7,297-45.9,297-33.975c0,16.275,24.975,13.05,24.975,18.6,0,1.875-2.4,3.075-6.975,3.075a35.094,35.094,0,0,1-17.7-4.875l-6.825,13.05C295.5-1.05,303.825,1.2,313.2,1.2Z" transform="translate(97.264 73)" fill="#fff"/>
      <path id="Path_3816" data-name="Path 3816" d="M-122.557-5l-1.851-5.387L-126.375-5Zm-2.714-7.2h1.868L-118.979,0h-1.81l-1.237-3.652h-4.823L-128.168,0h-1.693Zm27.263-.315a6.264,6.264,0,0,1,2.972.664A4.332,4.332,0,0,1-92.812-8.5h-1.635a2.97,2.97,0,0,0-1.237-1.947,4.257,4.257,0,0,0-2.366-.61,3.707,3.707,0,0,0-2.851,1.27A5.45,5.45,0,0,0-102.059-6a6.048,6.048,0,0,0,.955,3.54A3.529,3.529,0,0,0-97.992-1.1a3.975,3.975,0,0,0,2.735-.959,4.013,4.013,0,0,0,1.108-3.1h-3.818v-1.37h5.354V0h-1.062l-.4-1.569A6.263,6.263,0,0,1-95.56-.291a5.569,5.569,0,0,1-2.764.614,5.385,5.385,0,0,1-3.727-1.4,6.657,6.657,0,0,1-1.7-4.831,6.928,6.928,0,0,1,1.66-4.873A5.277,5.277,0,0,1-98.008-12.509ZM-78.6-5l-1.851-5.387L-82.414-5Zm-2.714-7.2h1.868L-75.018,0h-1.81l-1.237-3.652h-4.823L-84.207,0H-85.9Zm12.955,0h2.366l3.5,10.31,3.478-10.31h2.341V0h-1.569V-7.2q0-.374.017-1.237t.017-1.851L-61.681,0h-1.635l-3.5-10.285v.374q0,.448.021,1.365t.021,1.349V0h-1.577Zm19.778,0h1.668V0h-1.668Zm9.552,0h1.951l6.159,9.878v-9.878h1.569V0H-31.2l-6.25-9.87V0h-1.577Zm22.75-.315a6.264,6.264,0,0,1,2.972.664A4.332,4.332,0,0,1-11.079-8.5h-1.635a2.97,2.97,0,0,0-1.237-1.947,4.257,4.257,0,0,0-2.366-.61,3.707,3.707,0,0,0-2.851,1.27A5.45,5.45,0,0,0-20.326-6a6.048,6.048,0,0,0,.955,3.54A3.529,3.529,0,0,0-16.259-1.1a3.975,3.975,0,0,0,2.735-.959,4.013,4.013,0,0,0,1.108-3.1h-3.818v-1.37h5.354V0h-1.062l-.4-1.569A6.263,6.263,0,0,1-13.827-.291a5.569,5.569,0,0,1-2.764.614,5.385,5.385,0,0,1-3.727-1.4,6.657,6.657,0,0,1-1.7-4.831,6.928,6.928,0,0,1,1.66-4.873A5.277,5.277,0,0,1-16.275-12.509Zm31.654.315v1.453H11.27V0H9.593V-10.741H5.484v-1.453Zm6.87,0h8.89V-10.7H23.86V-7h6.732v1.411H23.86v4.134h7.4V0H22.249Zm16.342,0h2.366l3.5,10.31,3.478-10.31h2.341V0H48.71V-7.2q0-.374.017-1.237t.017-1.851L45.265,0H43.629l-3.5-10.285v.374q0,.448.021,1.365T40.168-7.2V0H38.591Zm19.562,0H63.64a3.72,3.72,0,0,1,2.623.917,3.328,3.328,0,0,1,1,2.577,3.747,3.747,0,0,1-.888,2.486A3.365,3.365,0,0,1,63.64-5.155H59.805V0H58.153Zm7.438,3.5a1.835,1.835,0,0,0-1-1.826,3.6,3.6,0,0,0-1.5-.257H59.805v4.225h3.287A3.142,3.142,0,0,0,64.9-7.022,1.875,1.875,0,0,0,65.591-8.691Zm8.946-3.5h1.652V-1.453h6.176V0H74.536ZM95.452-5,93.6-10.384,91.633-5Zm-2.714-7.2h1.868L99.029,0H97.22L95.983-3.652H91.16L89.84,0H88.147Zm20.617,0v1.453h-4.109V0h-1.677V-10.741h-4.109v-1.453Zm6.87,0h8.89V-10.7h-7.28V-7h6.732v1.411h-6.732v4.134h7.4V0h-9.015Z" transform="translate(255.529 98.096)" fill="#fff"/>
      <g id="Group_187" data-name="Group 187" transform="translate(0 9.48)">
        <path id="Path_3811" data-name="Path 3811" d="M163.792,262.657c0-20.959-14.026-38.558-32.81-43.172H111.872A43.172,43.172,0,0,0,68.7,262.657h0a43.172,43.172,0,0,0,43.172,43.172h75.206A51.156,51.156,0,0,1,163.792,262.657Z" transform="translate(-68.7 -219.485)" fill="#66ccc7"/>
        <g id="Group_186" data-name="Group 186" transform="translate(21.014 15.333)">
          <path id="Path_3812" data-name="Path 3812" d="M111.51,247.237l-4.566,3.509a4.175,4.175,0,0,1-4.9,0l-4.565-3.509a2.71,2.71,0,0,1-1.129-2.135v-11.11a3.916,3.916,0,0,1,3.579-3.669h9.131a3.915,3.915,0,0,1,3.578,3.669V245.1A2.712,2.712,0,0,1,111.51,247.237Z" transform="translate(-78.245 -230.323)"/>
          <path id="Path_3813" data-name="Path 3813" d="M97.478,256.737l4.565-3.51a4.179,4.179,0,0,1,4.9,0l4.566,3.51a2.712,2.712,0,0,1,1.128,2.133v11.11a3.915,3.915,0,0,1-3.578,3.669H99.928a3.916,3.916,0,0,1-3.579-3.669V258.87A2.709,2.709,0,0,1,97.478,256.737Z" transform="translate(-78.245 -221.152)"/>
          <path id="Path_3814" data-name="Path 3814" d="M100.465,244.249l3.51,4.565a4.177,4.177,0,0,1,0,4.9l-3.51,4.566a2.709,2.709,0,0,1-2.133,1.129H87.222a3.916,3.916,0,0,1-3.669-3.579V246.7a3.915,3.915,0,0,1,3.669-3.578h11.11A2.709,2.709,0,0,1,100.465,244.249Z" transform="translate(-83.553 -225.015)"/>
          <path id="Path_3815" data-name="Path 3815" d="M109.966,258.279l-3.509-4.566a4.173,4.173,0,0,1,0-4.9l3.509-4.565a2.714,2.714,0,0,1,2.135-1.129h11.11a3.915,3.915,0,0,1,3.669,3.578v9.131a3.916,3.916,0,0,1-3.669,3.579H112.1A2.714,2.714,0,0,1,109.966,258.279Z" transform="translate(-74.382 -225.015)"/>
        </g>
      </g>
      <g id="Group_188" data-name="Group 188" transform="translate(446.439 35.259)">
        <circle id="Ellipse_5" data-name="Ellipse 5" cx="7.44" cy="7.44" r="7.44" transform="translate(19.132)"/>
        <circle id="Ellipse_6" data-name="Ellipse 6" cx="7.44" cy="7.44" r="7.44" transform="translate(19.132 33.48)"/>
        <circle id="Ellipse_7" data-name="Ellipse 7" cx="7.44" cy="7.44" r="7.44" transform="translate(35.785 16.74)"/>
        <circle id="Ellipse_8" data-name="Ellipse 8" cx="7.44" cy="7.44" r="7.44" transform="translate(0 28.148) rotate(-67.152)"/>
      </g>
    </g>
  </g>
</svg>
