<svg xmlns="http://www.w3.org/2000/svg" width="174.557" height="182.104" viewBox="0 0 174.557 182.104">
  <g id="_1" data-name="1" transform="translate(-268.978 -258.366)">
    <g id="Group" transform="translate(10.978 2)">
      <path id="WINNER" d="M8.518-7.9H10.2L7.972,0H6.4L5.443-4.618,5.165-6.145,4.886-4.618,3.932,0H2.4L.161-7.9H1.913L2.957-3.375l.225,1.259.23-1.232L4.3-7.9H6.043l.938,4.522.241,1.259.241-1.211Zm2.545,0H12.7V0H11.063ZM20.626,0h-1.65L15.751-5.609V0H14.213V-7.9h1.73l3.145,5.513V-7.9h1.538ZM28.55,0H26.9L23.674-5.609V0H22.137V-7.9h1.73l3.145,5.513V-7.9H28.55Zm7.034-3.45H31.748v2.03H36.12V0H30.135V-7.9h5.791v1.4H31.748v1.677h3.836Zm5.175.354h-1.7V0H37.443V-7.9h3.873a3.609,3.609,0,0,1,1.278.2,2,2,0,0,1,.758.552,2.445,2.445,0,0,1,.407.664,2.165,2.165,0,0,1,.15.83,2.366,2.366,0,0,1-.284,1.106,1.587,1.587,0,0,1-.938.769,1.474,1.474,0,0,1,.774.624,2.6,2.6,0,0,1,.228,1.235v.53a4.057,4.057,0,0,0,.043.734.659.659,0,0,0,.3.45V0H42.216q-.075-.263-.107-.423a3.889,3.889,0,0,1-.07-.68l-.011-.734a1.434,1.434,0,0,0-.276-1.007A1.464,1.464,0,0,0,40.759-3.1Zm1-1.436a.88.88,0,0,0,.493-.889.981.981,0,0,0-.477-.964,1.8,1.8,0,0,0-.8-.139H39.056V-4.4h1.87A2.084,2.084,0,0,0,41.761-4.532Z" transform="translate(323.011 297.432) rotate(0.218)" fill="#e8e8e8"/>
      <path id="_2020" data-name="2020" d="M5.494.366A2.068,2.068,0,0,0,7.276-.659,1.466,1.466,0,0,0,7.4-1a.5.5,0,0,0-.488-.464.44.44,0,0,0-.391.22,1.177,1.177,0,0,1-1.05.659A8.482,8.482,0,0,1,2.71-1.66,28.738,28.738,0,0,0,6.348-5.469C7.764-7.3,9.742-10.523,9.742-12.574A3.294,3.294,0,0,0,6.25-15.968a4.17,4.17,0,0,0-4.248,4,2.67,2.67,0,0,0,.366,1.392.474.474,0,0,0,.391.2.458.458,0,0,0,.464-.439.544.544,0,0,0-.1-.317,1.434,1.434,0,0,1-.171-.855,3.246,3.246,0,0,1,3.272-3.028A2.389,2.389,0,0,1,8.79-12.574c0,1.856-1.734,4.663-3.1,6.4a25.172,25.172,0,0,1-4,4.151A4.756,4.756,0,0,0,.317-2.2c-.806,0-2.149.391-2.149,1.489A1.008,1.008,0,0,0-.732.317,2.014,2.014,0,0,0,.1.122,13.124,13.124,0,0,0,1.856-.952a9.606,9.606,0,0,1,1.221.537A5.513,5.513,0,0,0,5.494.366ZM.61-1.245a7.334,7.334,0,0,1-.9.513A1.713,1.713,0,0,1-.732-.61c-.073,0-.146-.024-.146-.1,0-.415.806-.537,1.2-.537ZM12.647.342c3.369,0,7.105-7.007,7.105-11.964,0-1.563-.488-4.224-2.637-4.224-3.394,0-7.129,7.081-7.129,11.964C9.986-2.3,10.474.342,12.647.342Zm4.468-15.236c1.392,0,1.685,2.075,1.685,3.247C18.8-7.154,15.455-.61,12.647-.61c-1.416,0-1.709-2.051-1.709-3.247C10.938-8.375,14.332-14.894,17.116-14.894Zm8.2,15.26A2.068,2.068,0,0,0,27.1-.659,1.467,1.467,0,0,0,27.224-1a.5.5,0,0,0-.488-.464.44.44,0,0,0-.391.22,1.177,1.177,0,0,1-1.05.659A8.482,8.482,0,0,1,22.536-1.66a28.738,28.738,0,0,0,3.638-3.809c1.416-1.831,3.394-5.054,3.394-7.105a3.294,3.294,0,0,0-3.491-3.394,4.17,4.17,0,0,0-4.248,4,2.67,2.67,0,0,0,.366,1.392.474.474,0,0,0,.391.2.458.458,0,0,0,.464-.439.544.544,0,0,0-.1-.317,1.434,1.434,0,0,1-.171-.855,3.246,3.246,0,0,1,3.272-3.028,2.389,2.389,0,0,1,2.564,2.442c0,1.856-1.734,4.663-3.1,6.4a25.172,25.172,0,0,1-4,4.151A4.756,4.756,0,0,0,20.143-2.2c-.806,0-2.149.391-2.149,1.489a1.008,1.008,0,0,0,1.1,1.025,2.014,2.014,0,0,0,.83-.2A13.124,13.124,0,0,0,21.681-.952,9.606,9.606,0,0,1,22.9-.415,5.513,5.513,0,0,0,25.319.366ZM20.436-1.245a7.334,7.334,0,0,1-.9.513,1.713,1.713,0,0,1-.439.122c-.073,0-.146-.024-.146-.1,0-.415.806-.537,1.2-.537ZM32.473.342c3.369,0,7.105-7.007,7.105-11.964,0-1.563-.488-4.224-2.637-4.224-3.394,0-7.129,7.081-7.129,11.964C29.812-2.3,30.3.342,32.473.342Zm4.468-15.236c1.392,0,1.685,2.075,1.685,3.247,0,4.493-3.345,11.036-6.153,11.036-1.416,0-1.709-2.051-1.709-3.247C30.764-8.375,34.158-14.894,36.941-14.894Z" transform="translate(326.03 320.095) rotate(0.218)" fill="#e8e8e8"/>
    </g>
    <g id="Group_10" data-name="Group 10" transform="translate(0)">
      <path id="Path_3535" data-name="Path 3535" d="M395.859,375.062a54.157,54.157,0,0,0,.863-5.841,4.092,4.092,0,0,1,1.945-3.448,53.006,53.006,0,0,1,20.157-7.9c2.88-.541,5.957-.156,8.934-.007,1.994.1,2.282.931,1.249,2.72-1.454,2.519-2.807,5.1-4.338,7.57-.725,1.17-.413,1.859.506,2.632a23.9,23.9,0,0,1,5.344,6.334c1.076,1.861.884,2.327-1.146,2.941-3.108.941-6.217,1.882-9.338,2.779-1.09.313-1.791.72-1.728,2.082a21.166,21.166,0,0,1-.394,3.714,8.567,8.567,0,0,1-5.053,7.192c-7.011,3.428-14.481,5.092-22.067,6.423-6.587,1.155-13.258,1.045-19.912,1.275-10.829.374-21.648-.248-32.471-.143A125.209,125.209,0,0,0,318.1,404.9c-1.7.3-2.547.981-2.654,2.674a17.105,17.105,0,0,0-.3,2.466c.287,3.229-1.846,4.626-4.208,6.016a55.277,55.277,0,0,1-17.85,6.52c-2.945.561-6.093.171-9.141.026-1.918-.091-2.255-.936-1.32-2.57,1.479-2.584,2.9-5.2,4.443-7.75a1.639,1.639,0,0,0-.377-2.486,23.819,23.819,0,0,1-5.493-6.476c-1.057-1.841-.854-2.308,1.187-2.927,3.174-.963,6.345-1.933,9.532-2.852.966-.279,1.515-.659,1.493-1.816a28.607,28.607,0,0,1,.389-3.716,8.578,8.578,0,0,1,5.1-7.381c7.013-3.424,14.482-5.089,22.069-6.413a107.246,107.246,0,0,1,17.415-1.2c6.871-.07,13.751-.47,20.609-.222,8.314.3,16.61.322,24.913-.067A75.694,75.694,0,0,0,395.859,375.062Zm-99.746,32.326c.684-.287,1.061-.457,1.445-.606,12.341-4.785,24.914-8.229,38.318-8.621,7.423-.217,14.834,0,22.238,0,12.632,0,25.209-.926,37.81-1.395a38.007,38.007,0,0,0,16.087-4.174c2.508-1.288,4.12-2.774,4.138-5.923.024-4.334.361-8.658-.49-13.156-.773.419-1.371.726-1.952,1.062a49.961,49.961,0,0,1-11.411,4.791c-8.745,2.49-17.739,2.773-26.735,2.75-10.263-.027-20.524-.171-30.788-.106-7.965.05-15.929.071-23.815,1.236a97.437,97.437,0,0,0-23.708,7.028c-.551.233-1.245.436-1.333,1.181a53.613,53.613,0,0,0,.2,15.933Zm119.2-36.7a48.011,48.011,0,0,1-11.62,4.982c-15.738,4.481-31.8,4.677-48.01,4.144-13.43-.442-26.919-.849-40.235,1.865-6.059,1.235-12.031,2.71-17.563,5.579-.811.421-1.922.7-1.4,2.164.27-.081.522-.133.755-.229,9.489-3.876,19.248-6.817,29.512-7.51,7.738-.523,15.508-.653,23.266-.793,13.59-.245,27.191.7,40.773-.3a55.472,55.472,0,0,0,23.848-7.507c1.042-.6,1.006-1.322.674-2.4Zm-13.48,26.825c-1.424-.562-2.523.189-3.7.19-6.657.006-13.281.865-19.918,1.028-10.406.256-20.817.522-31.237.321-9.684-.187-19.4-.279-28.923,2.064a126.1,126.1,0,0,0-20.2,6.633c-.767.333-2.041.48-1.427,2.048a52.365,52.365,0,0,1,12.852-5.367c15.582-4.552,31.605-3.854,47.527-3.789,10.62.043,21.237.475,31.817-.62a82.036,82.036,0,0,0,13.209-2.511Zm16.649-18.16,8.834-3a22.737,22.737,0,0,0-4.192-4.857,2.85,2.85,0,0,1-.431-4.039c1.339-2.067,2.582-4.2,3.931-6.4-5.269.053-16.513,2.924-19.426,4.982a16.264,16.264,0,0,1,5.549.094c3.213.341,4.337,1.494,4.765,4.7.365,2.73.628,5.478.97,8.517ZM293.244,401.114c-3.068,1.406-6.168,1.721-9.252,2.5a20.8,20.8,0,0,0,4.278,4.982c1.7,1.576,1.753,3.031.508,4.9a18.355,18.355,0,0,0-2.674,4.716A53.3,53.3,0,0,0,302.836,415a8.7,8.7,0,0,0-3.472-.6c-3.521-.336-4.793-1.565-5.187-5.016C293.871,406.707,293.573,404.029,293.244,401.114Zm3.039,10.712c5.985,1.532,11.452.569,16.924.52.315-2.267.6-4.348.921-6.643a59.256,59.256,0,0,0-17.845,6.123Zm119.127-43.2c-5.89-1.5-11.361-.552-16.877-.51-.312,2.269-.6,4.388-.916,6.673,6.254-1.3,12.063-2.889,17.793-6.166ZM309.892,414.179a13.9,13.9,0,0,0-3.245.5,64.421,64.421,0,0,1-20.678,4.634c-1.037.063-1.515.48-1.389,1.531C294,422.35,301.976,418.377,309.892,414.179Zm117.128-54.3c-7.142-1.225-19.992,2.123-25.2,6.556,8.28-2.646,16.4-5.875,25.2-6.561Zm-8.694,21.944a50.545,50.545,0,0,1,10.541-3.463c-1.372-1.426-9.552,1.08-10.541,3.458ZM293.25,398.742a63.692,63.692,0,0,1-10.235,3.482C286,402.948,292.776,400.788,293.25,398.742Z" fill="#de901b"/>
      <g id="Group_9" data-name="Group 9">
        <path id="Path_3536" data-name="Path 3536" d="M390.231,436.944c-.471-.058-.94-.128-1.407-.193.087-.84.215-1.59.235-2.342.14-5.289-2.126-7.815-7.4-8.272a55.1,55.1,0,0,0-7.529-.444c.228-2.746-1.4-3.672-3.6-3.989-.553-3.082-2.128-5.546-4.929-6.59-2.262-.843-2.995-2.321-3.376-4.347-.115-.611-.239-1.222-.377-1.829-.547-2.409-2.151.854-2.142-5.311l-1.851-.02c.047,7.551,1.011,2.152,3.142,9.8a34.491,34.491,0,0,0-10.369.068c2.208-7.678,3.137-2.321,3.236-9.934l-1.947-.036c-.042,7.477-1.169,1.845-3.017,9.168a2.29,2.29,0,0,1-1.712,1.78,8.981,8.981,0,0,0-5.923,6.218c-.132.464-.09,1.006-.749,1.07-2.247.22-3.19,1.608-3.161,3.83a47.577,47.577,0,0,0-7.431.365c-5.3.391-7.592,2.892-7.505,8.176.012.753.137,1.5.226,2.429-.422.046-.693.07-.962.107-.928.126-2.166-.076-2.214,1.308-.05,1.425,1.242,1.544,2.224,1.678a47.551,47.551,0,0,0,5.185.407c6.52.167,13.048.135,19.564.286,12.768.3,25.527.054,38.289-.075a44.276,44.276,0,0,0,5.593-.47c.778-.108,1.717-.4,1.687-1.51C391.972,437.138,391.08,437.049,390.231,436.944Zm-58.612-.232c-2,.639-3.9.042-5.78-.044-.831-.038-1.109-.956-1.333-1.683a5.248,5.248,0,0,1,3.818-6.747,41.083,41.083,0,0,1,4.213-.633C330.239,430.6,331.564,433.668,331.619,436.712Zm3.649.177c-1.84.568-2.512-.027-2.453-1.712.043-1.237-.134-2.481-.129-3.722.01-2.314.78-3.191,3.471-3.84-1.749,3.008-1.357,6.091-.889,9.274ZM354.615,415.6c7.644-.146,12.015,1.808,13.384,6.178l-24.351-.093C344.33,417.518,349.876,415.692,354.615,415.6Zm-12.731,8.382c4.01.406,8.033.349,12.052.406,4.71.067,9.418.086,14.126-.227,1.486-.1,3.314-.75,4.378,1.435l-33.287-.127c.5-1.569,1.647-1.6,2.731-1.486Zm45.07,11.281a2.173,2.173,0,0,1-2.218,1.757c-9.426.317-18.853.348-28.282.423-5.691.045-11.368-.352-17.054-.218-.824.02-1.65,0-2.673-.007a32.024,32.024,0,0,1-.129-6.5c.175-1.986,1.483-2.949,4.43-3.074,8.594-.364,17.2-.2,25.788,0,5.121.118,10.266-.229,15.369.581,3.7.583,5.859,3.683,4.769,7.039Z" fill="#de901b"/>
        <path id="Path_3537" data-name="Path 3537" d="M442.539,281.6c-3.586-14.013-22.7-23.258-36.011-12.352-.117.1-.336.066-.555.1-.154-2.083-.291-4.087-.453-6.089a2,2,0,0,0-1.9-2.151,168.918,168.918,0,0,0-26.679-2.347c-16.511-.389-33.039-.728-49.545.2a136.812,136.812,0,0,0-18.179,1.765c-1.572.3-1.867,1.085-1.973,2.323-.168,1.978-.33,3.955-.521,6.256a19.923,19.923,0,0,0-14.27-5.347,24.093,24.093,0,0,0-23.109,28.269c2.948,16.9,12.914,28.618,28,36.238,3.543,1.79,7.454,2.607,11.187,3.89,6.733,2.315,10.952,6.765,12.56,13.723.4,1.723,1.088,3.6,3.2,3.548,2.3-.055,2.558-2.181,3.008-3.921.086-.331.031-.7.1-1.034.355-1.683-.005-3.386.026-5.379,4.712,4.575,9.119,9.068,14.787,11.979-.954,1.724.457,2.655,1.267,3.732-2.657,2.373-3.481,5.906-1.789,8.215.891,1.215,2.076,2.134,2.142,3.867.03.8.912,1.428,1.737,1.635,1.11.279,1.4.974,1.718,1.995.629,2,1.144,4.023,1.58,6.056q1.088-.024,2.174-.041c-.362-1.775-.743-3.551-1.156-5.329a94.246,94.246,0,0,0,12.2-.013c-.439,1.815-.845,3.631-1.23,5.446q1.078.033,2.156.059c.511-2.24,1.1-4.467,1.8-6.672.14-.44.18-.971.765-1.14,1.84-.529,3.159-1.463,2.81-3.672-.057-.358.265-.417.454-.6,3.293-3.169,3.219-6.391-.248-9.8,1.074-1.006,2.145-2.034,1.343-3.676,5.75-2.868,10.117-7.384,14.953-11.882a18.533,18.533,0,0,0,.427,8.237,2.781,2.781,0,0,0,2.465,2.227,2.7,2.7,0,0,0,2.573-1.8,19.7,19.7,0,0,0,1.058-2.915c1.564-5.464,4.783-9.467,10.16-11.564a47.865,47.865,0,0,1,6.056-2.188c13.087-3.146,22.393-11.386,29.468-22.3C442.506,300.808,445.105,291.631,442.539,281.6Zm-19.721,6.851c2.876-3.6,4.04-9.359-2.122-16.068,2.294-.121,6.265,1.982,7.966,4.319a19.672,19.672,0,0,1,3.2,16.607c-3.042,13.427-11.2,22.293-24.26,26.556-4.132,1.348-8.331,2.48-12.316,4.432,4.857-10.526,8.276-21.342,9.378-32.88,7.2,3.583,13.871,2.4,18.154-2.963ZM403.1,262.637c.585-.005.791.453.788,1.014-.021,4.013-.034,8.025-.049,11.989-1.818.587-3.24-.369-4.97-.239a107.9,107.9,0,0,0-.425-13.094C400.166,261.829,401.6,262.651,403.1,262.637Zm-1.535,16.08c-3.194-.624-6.424-.927-9.653-1.294-7.8-.888-15.637-.96-23.463-1.239-13.042-.466-26.085-.163-39.118.312a117.092,117.092,0,0,0-17.947,1.826,18.819,18.819,0,0,1-1.962.167c-.391-1.051-.416-1.611.773-1.725,7.033-.674,14.073-1.238,21.131-1.577,11.379-.546,22.763-.292,34.146-.262a340.52,340.52,0,0,1,37.734,2.311c.248,1.638.086,1.819-1.644,1.481Zm-4.539-16.881c.382,4.378-.2,8.659.67,12.931a4.283,4.283,0,0,1-2.532.1c-.221-4.271-.444-8.577-.672-12.987a4.736,4.736,0,0,1,2.531-.044Zm-86.937.371c5.974-.829,11.991-1.247,18-1.562,16.025-.838,32.066-.4,48.1-.215,5.667.065,11.328.676,17.4,1.063-.018,4.575-.034,8.772-.05,13.112-28.122-1.887-56.281-2.32-84.687.92.016-4.2.039-8.21.04-12.222,0-.846.508-1,1.194-1.1ZM307.9,291.054c1.015,11.556,4.359,22.4,9.554,33.361a48.639,48.639,0,0,0-11.356-4.476c-7.311-1.768-13.016-5.936-17.88-11.5a32.089,32.089,0,0,1-8.067-20.053c-.386-7.732,3.6-13.989,10.233-16.38a2.3,2.3,0,0,1,1.825-.179,14.358,14.358,0,0,0-4.6,8.154c-.581,3.326.659,6.054,2.685,8.635C293.579,292.789,301.073,294.8,307.9,291.054Zm16.455,56.6a4.234,4.234,0,0,1-1.395-2.845A20.3,20.3,0,0,0,311.6,330.526c-2.8-1.406-5.816-2.241-8.7-3.413-16.063-6.526-26.739-17.968-30.448-35.047-2.954-13.6,6.35-25.428,20.138-26.046a18.466,18.466,0,0,1,12.748,4.269,3.686,3.686,0,0,1,1.456,3.237,75.646,75.646,0,0,0,.684,13.274c.3,2.143-1.148,2.981-2.655,3.33-6.082,1.408-11.826-.552-14.154-6.709-1.824-4.824,2.437-11.2,7.352-11.27a3.716,3.716,0,0,1,2.95,1.224c2.237,2.365,3.091,6.243,1.785,8.64-.536.984-1.238,2.023-2.568,1.679a4.021,4.021,0,0,1-2.96-3.43,1.846,1.846,0,0,1,1.83-2.279c.633-.086,1.068-.4.91-1.106-.149-.662-.742-.788-1.3-.815-2.088-.1-4.008,2.414-3.519,4.719a6.868,6.868,0,0,0,2.426,4.023c2.369,1.9,5.217,1.492,6.773-1.124,2.061-3.468,1.526-6.993-.465-10.243-1.9-3.1-4.535-5.017-8.544-4.8-14.127.765-18.885,12.187-17.545,22.579,1.924,14.925,10.4,24.7,24.021,30.273,3.827,1.564,8.021,2.158,11.809,3.939,7.048,3.313,10.962,8.914,11.932,16.546a8.969,8.969,0,0,1-1.2,5.68Zm19.041,3.935a44.654,44.654,0,0,0,25.2.106c-.329,2.15-1.8,2.172-2.9,2.288a92.541,92.541,0,0,1-19.254-.035c-1.79-.183-2.157-.478-3.042-2.357Zm21.9,15.851a22.567,22.567,0,0,1-5.792.307c-4.216-.039-8.447.284-12.645-.368-1-.156-1.951-.4-1.611-1.841,7.238.236,14.276.247,21.476.1.369,1.2-.384,1.544-1.424,1.8Zm4.036-7.774c.257,2.235-.5,3.544-2.351,3.979-3.286.775-6.62.373-9.937.372-.346,0-.691-.045-1.037-.07-3.523-.027-7.062.472-10.561-.327-2.252-.514-3.033-1.651-2.746-4.042.263-2.189,1.265-3.077,3.574-3.064,6.642.04,13.282.47,19.929.086,1.863-.105,2.9,1.014,3.132,3.068Zm4.373-12.9c-4.563,3.585-9.819,4.6-15.288,5.105a39.308,39.308,0,0,1-11.131-.99c-5.62-1.094-9.658-4.674-13.6-8.375-10.809-10.153-16.985-22.955-20.765-37.049-2.232-8.325-3.052-16.869-3.711-25.763a407.291,407.291,0,0,1,94.205.345c-.985,12.915-2.838,25.24-7.693,37-4.861,11.79-11.931,21.809-22.014,29.731Zm66.029-52.259c-4.9,17.038-16.054,28.29-32.88,33.88-6.317,2.1-12.108,4.88-15.521,11.053a19.046,19.046,0,0,0-2.046,5.188c-.238,1.094-.264,2.365-1.543,3.227-1.952-4.173-1.233-8.136.6-11.986,2.925-6.153,7.922-9.837,14.376-11.689,1.6-.459,3.189-.949,4.8-1.364,11.708-3.015,19.715-10.488,24.707-21.184a27.54,27.54,0,0,0,1.638-20.452c-2.354-7.436-7.809-10.678-15.18-12.037-6.608-1.219-12.07,5.1-11.578,11.4.236,3.029,2.112,5.566,4.428,5.8,2.569.259,5.211-1.907,5.93-4.864.556-2.288-1.075-4.8-3.22-4.956-.657-.047-1.327.035-1.526.76-.228.83.376,1.055,1.064,1.168a1.773,1.773,0,0,1,1.658,2.029,4.18,4.18,0,0,1-2.78,3.589c-1.129.438-1.852-.286-2.447-1.092-1.782-2.411-.893-7.007,1.8-9.448,1.773-1.606,5.084-1.223,7.288,1.071,2.425,2.523,3.853,5.6,2.7,9.085a9.94,9.94,0,0,1-8.875,7.136c-2.309.246-4.708.535-6.828-1.015a2.49,2.49,0,0,1-1.175-2.609,74.745,74.745,0,0,0,.771-13.061,4.074,4.074,0,0,1,1.962-3.825c6.867-4.757,15.377-5.323,23.378-.1s11.411,14.177,8.5,24.3Z" fill="#de901b"/>
      </g>
    </g>
  </g>
</svg>
