<svg xmlns="http://www.w3.org/2000/svg" width="193.733" height="153.409" viewBox="0 0 193.733 153.409">
  <g id="_2" data-name="2" transform="translate(-56.463 -279.216)">
    <g id="Group">
      <path id="RUNNERS" d="M5.036-3.722H2.988V0H1.05V-9.492H5.705a4.337,4.337,0,0,1,1.536.245,2.4,2.4,0,0,1,.911.663,2.939,2.939,0,0,1,.489.8,2.6,2.6,0,0,1,.18,1,2.844,2.844,0,0,1-.341,1.33,1.907,1.907,0,0,1-1.127.924,1.772,1.772,0,0,1,.931.75A3.123,3.123,0,0,1,8.558-2.3v.638a4.876,4.876,0,0,0,.052.882.792.792,0,0,0,.361.541V0H6.787Q6.7-.316,6.658-.509a4.674,4.674,0,0,1-.084-.818l-.013-.882A1.724,1.724,0,0,0,6.23-3.419,1.76,1.76,0,0,0,5.036-3.722Zm1.2-1.726a1.057,1.057,0,0,0,.592-1.069,1.18,1.18,0,0,0-.573-1.159,2.166,2.166,0,0,0-.966-.167H2.988v2.55H5.235A2.5,2.5,0,0,0,6.24-5.448Zm9.9,1.79V-9.492h2.016v5.834a4.887,4.887,0,0,1-.47,2.357Q16.813.245,14.347.245T11-1.3a4.887,4.887,0,0,1-.47-2.357V-9.492h2.016v5.834a3.3,3.3,0,0,0,.232,1.43,1.538,1.538,0,0,0,1.571.8,1.532,1.532,0,0,0,1.565-.8A3.3,3.3,0,0,0,16.144-3.658ZM27.728,0H25.745L21.868-6.742V0H20.02V-9.492H22.1l3.78,6.626V-9.492h1.848Zm9.524,0H35.269L31.392-6.742V0H29.544V-9.492h2.08L35.4-2.866V-9.492h1.848Zm8.455-4.147H41.1v2.441h5.255V0H39.158V-9.492h6.961v1.681H41.1V-5.8h4.611Zm6.221.425H49.88V0H47.942V-9.492H52.6a4.337,4.337,0,0,1,1.536.245,2.4,2.4,0,0,1,.911.663,2.939,2.939,0,0,1,.489.8,2.6,2.6,0,0,1,.18,1,2.844,2.844,0,0,1-.341,1.33,1.907,1.907,0,0,1-1.127.924,1.772,1.772,0,0,1,.931.75A3.123,3.123,0,0,1,55.45-2.3v.638a4.876,4.876,0,0,0,.052.882.792.792,0,0,0,.361.541V0H53.679q-.09-.316-.129-.509a4.674,4.674,0,0,1-.084-.818l-.013-.882a1.724,1.724,0,0,0-.332-1.211A1.76,1.76,0,0,0,51.928-3.722Zm1.2-1.726a1.057,1.057,0,0,0,.592-1.069,1.18,1.18,0,0,0-.573-1.159,2.166,2.166,0,0,0-.966-.167H49.88v2.55h2.247A2.5,2.5,0,0,0,53.132-5.448Zm7.734,4.076a3.493,3.493,0,0,0,1.14-.155,1.1,1.1,0,0,0,.831-1.1.813.813,0,0,0-.412-.728A4.432,4.432,0,0,0,61.13-3.8l-1-.225a6.348,6.348,0,0,1-2.048-.728,2.314,2.314,0,0,1-.959-2.054,2.743,2.743,0,0,1,.927-2.119,3.921,3.921,0,0,1,2.724-.844,4.141,4.141,0,0,1,2.56.8A2.839,2.839,0,0,1,64.44-6.665H62.534a1.362,1.362,0,0,0-.747-1.217,2.505,2.505,0,0,0-1.153-.238,2.152,2.152,0,0,0-1.223.309.984.984,0,0,0-.457.863.817.817,0,0,0,.451.76A5.518,5.518,0,0,0,60.64-5.8l1.636.393a4.229,4.229,0,0,1,1.623.689,2.321,2.321,0,0,1,.85,1.938,2.735,2.735,0,0,1-.995,2.16,4.168,4.168,0,0,1-2.811.86A4.559,4.559,0,0,1,58.026-.6,2.814,2.814,0,0,1,56.963-2.93h1.893a1.949,1.949,0,0,0,.354.972A2.038,2.038,0,0,0,60.866-1.372Z" transform="translate(120.414 315.092)" fill="#ebebeb"/>
      <path id="_2019" data-name="2019" d="M6.6.44A2.485,2.485,0,0,0,8.745-.792,1.763,1.763,0,0,0,8.892-1.2a.6.6,0,0,0-.587-.558.529.529,0,0,0-.47.264A1.415,1.415,0,0,1,6.574-.7,10.2,10.2,0,0,1,3.258-2,34.542,34.542,0,0,0,7.63-6.574c1.7-2.2,4.079-6.075,4.079-8.54a3.96,3.96,0,0,0-4.2-4.079A5.013,5.013,0,0,0,2.406-14.38a3.209,3.209,0,0,0,.44,1.673.57.57,0,0,0,.47.235A.55.55,0,0,0,3.874-13a.653.653,0,0,0-.117-.382,1.724,1.724,0,0,1-.205-1.027,3.9,3.9,0,0,1,3.932-3.639,2.871,2.871,0,0,1,3.081,2.935c0,2.23-2.084,5.605-3.727,7.689A30.255,30.255,0,0,1,2.025-2.436,5.717,5.717,0,0,0,.382-2.641c-.968,0-2.583.47-2.583,1.79A1.211,1.211,0,0,0-.88.382a2.42,2.42,0,0,0,1-.235A15.775,15.775,0,0,0,2.23-1.145,11.546,11.546,0,0,1,3.7-.5,6.626,6.626,0,0,0,6.6.44ZM.734-1.5A8.815,8.815,0,0,1-.352-.88,2.059,2.059,0,0,1-.88-.734c-.088,0-.176-.029-.176-.117,0-.5.968-.646,1.438-.646ZM15.2.411c4.05,0,8.54-8.423,8.54-14.38,0-1.878-.587-5.077-3.169-5.077C16.493-19.046,12-10.536,12-4.666,12-2.759,12.59.411,15.2.411ZM20.572-17.9c1.673,0,2.025,2.494,2.025,3.9,0,5.4-4.021,13.265-7.4,13.265-1.7,0-2.054-2.465-2.054-3.9C13.147-10.066,17.227-17.9,20.572-17.9Zm9.244,1.027a.7.7,0,0,0,.264-.059l.7-.382C28.5-11.5,25.767-4.7,24.065-.382a1.2,1.2,0,0,0-.029.323.583.583,0,0,0,.587.47.527.527,0,0,0,.5-.352l7.366-18.4a1.027,1.027,0,0,0,.059-.293.5.5,0,0,0-.47-.47.781.781,0,0,0-.352.088l-2.172,1.086a.5.5,0,0,0-.293.47A.543.543,0,0,0,29.817-16.875ZM34.395.382a.579.579,0,0,0,.411-.176c.147-.147,1.908-1.937,4.05-4.607a30.441,30.441,0,0,0,4.784-7.806,8.946,8.946,0,0,0,.528-2.876c0-2.172-1.174-3.932-3.434-3.932-3.434,0-6.134,4.226-6.134,7.572,0,2,1.027,4.138,3.551,4.138a4.238,4.238,0,0,0,1.761-.382c-.646.968-1.291,1.82-1.878,2.553a60.458,60.458,0,0,1-4.05,4.549.579.579,0,0,0-.176.411A.564.564,0,0,0,34.395.382Zm6.339-18.254c1.467,0,2.289,1.174,2.289,2.817a7.981,7.981,0,0,1-.91,3.58c-.91,1.731-2.494,3.023-3.991,3.023-1.673,0-2.377-1.5-2.377-3.023C35.745-13.969,37.887-17.872,40.734-17.872Z" transform="translate(132.664 342.82)" fill="#ebebeb"/>
    </g>
    <g id="Group_7" data-name="Group 7" transform="translate(0)">
      <path id="Path_3523" data-name="Path 3523" d="M229.231,416.568c.362,2.12,1.425,3.848,2.176,5.685a29.142,29.142,0,0,1,2.38,7.083c.4,3.011-.765,3.907-3.583,2.843a64.967,64.967,0,0,1-9.96-5.2c-8.285-4.9-17.32-7.758-26.564-10.1-.74-.187-1.5-.318-2.217-.571-4.906-1.734-5.73-2.387-3.173-8.1.138-.308.3-.6.626-1.231-3.948-.738-7.714-1.489-11.5-2.139-7.253-1.246-14.551-2.185-21.869-2.928-4.88-.495-9.676.642-14.49,1.212-7.715.915-15.37,2.219-23.118,3.862.479,1.18,1,2.219,1.326,3.317.987,3.366.563,4.318-2.694,5.495a64.127,64.127,0,0,1-6.206,1.739A102.029,102.029,0,0,0,81.7,429.625a27.031,27.031,0,0,1-5.826,2.754c-2.1.677-3.049-.035-3.01-2.236.043-2.42,1.046-4.582,1.939-6.763.911-2.227,1.873-4.433,2.834-6.7a7.948,7.948,0,0,0-3.522-.183c-5.271.327-10.549.236-15.825.23-.693,0-1.493.046-1.769-.765s.452-1.237.951-1.686c5.83-5.254,12.719-8.907,19.449-12.789,2.756-1.59,2.817-1.481,2.082-4.664a18.465,18.465,0,0,1-.615-5.773,3.491,3.491,0,0,1,2.709-3.46c18.972-5.628,37.979-11.03,57.754-13.193,13.932-1.524,27.7-.509,41.456,1.774,15.314,2.542,30.11,7.076,44.987,11.328,2.242.641,2.96,2.02,3.047,4.083a18.6,18.6,0,0,1-.959,6.352c-.506,1.614-.023,2.3,1.367,3.069,6.8,3.763,13.654,7.459,19.608,12.549.369.316.748.622,1.1.955.4.379.883.773.694,1.4-.221.739-.891.8-1.528.807-2.152.018-4.3.058-6.457.014-3.955-.082-7.909-.222-11.863-.324a6.641,6.641,0,0,0-1.075.164Zm-3.43-22.31c.146-1.725-1.316-1.662-2.238-1.961-16.3-5.3-32.775-9.987-49.712-12.76-7.99-1.308-16.036-2.723-24.193-2.08a239.675,239.675,0,0,0-46.9,8.926c-6.735,1.92-13.506,3.731-20.121,6.054-.977.343-2.033.571-1.672,2.091a75.083,75.083,0,0,0,5.167,14.7c.614,1.3,1.356,1.337,2.639.882q6.371-2.259,12.843-4.231c12.166-3.7,24.671-5.825,37.208-7.757a85.675,85.675,0,0,1,21.135-1.074c7.04.664,13.971,2.088,20.939,3.247a210.7,210.7,0,0,1,37.335,9.909c.9.325,1.551.461,2.065-.541a69.232,69.232,0,0,0,5.5-15.405Zm-.166,9.488c-.69,1.73-1.237,3.221-1.872,4.674-3.019,6.91-5.164,7.846-12.337,5.722a56.909,56.909,0,0,0-16.984-2.8c-.812.011-1.729-.2-2.56.706,6.966,1.87,13.723,3.664,20.295,6.106a65.082,65.082,0,0,1,18.527,9.97,3.7,3.7,0,0,0-.363-2.3c-.844-2.351-1.747-4.681-2.6-7.027-1.423-3.892-1.213-4.2,2.843-4.1,2.983.074,5.965.229,8.948.261,1.4.015,2.838.337,4.559-.364a75.285,75.285,0,0,0-18.456-10.848Zm-110.492,8.172a5.332,5.332,0,0,0-2.757-.579,45.983,45.983,0,0,0-10.72,1.19c-3.293.824-6.568,1.725-9.877,2.481a5.771,5.771,0,0,1-6.758-2.8,34.818,34.818,0,0,1-3.131-6.32c-.256-.685-.287-1.517-1.189-2.026a72.017,72.017,0,0,0-17.955,10.677A1.839,1.839,0,0,0,64.4,415c4.366-.093,8.731-.241,13.1-.3,2.173-.031,2.6.6,1.933,2.672-.426,1.317-.987,2.591-1.439,3.9a32.932,32.932,0,0,0-2.138,6.887c11.691-9.07,25.372-12.391,39.287-16.241Zm103.557-.129c-.434-.709-1.18-.765-1.806-.984-3.47-1.213-6.94-2.429-10.435-3.568-11.042-3.6-22.419-5.692-33.859-7.518-6.986-1.115-13.982-2.382-21.069-1.9a228.856,228.856,0,0,0-49.032,8.708,150.183,150.183,0,0,0-14.569,5.018c.439,1.246,1.021,1.74,2.233,1.23a121.994,121.994,0,0,1,18.113-5.466c14.77-3.656,29.7-6.416,44.938-7.109,6.623-.3,13.131,1.015,19.633,2.017,14.828,2.284,29.488,5.335,43.612,10.548a1.5,1.5,0,0,0,2.241-.976Zm7.165-19.72c.3-2.515.25-2.6-1.666-3.124-2.342-.638-4.693-1.245-7.03-1.9-13.357-3.758-26.7-7.6-40.484-9.511-8.38-1.161-16.771-2.679-25.246-2.313a217.156,217.156,0,0,0-26.234,3.075c-14.619,2.433-28.694,7.01-43,10.693-1.622.418-1.861,1.377-1.516,2.727.586.3,1.025.019,1.47-.128A365.47,365.47,0,0,1,124.122,380.3c10.932-2.218,21.911-4.214,33.169-3.552,15.873.934,31.25,4.536,46.519,8.668C211.16,387.41,218.524,389.381,225.865,392.069Zm4.949,37.885c-6.789-6.845-35.489-18.28-41.635-16.457,6.98,2.513,14.313,3.915,21.235,6.658a176.642,176.642,0,0,1,20.4,9.8Zm-154.986-.412a2.979,2.979,0,0,0,2.394-.714A122.333,122.333,0,0,1,91,422.308a129.851,129.851,0,0,1,23.131-7.448c1.241-.257,2.695-.421,3.6-2.325-15,3.665-29.613,7.038-41.9,17.007Zm170.59-14.416c-.278-1.279-1.053-1.554-1.612-1.99-5.313-4.153-11.258-7.313-17.018-10.762-.456-.273-1.117-1.026-1.577-.167-.551,1.028.566,1.078,1.1,1.3,5.223,2.142,9.923,5.209,14.631,8.255,1.464.938,2.8,2.091,4.476,3.364ZM60.147,414.4l.326.456a3.046,3.046,0,0,0,.693-.318,81.135,81.135,0,0,1,18.073-10.977c.55-.246,1.7-.3,1.248-1.246-.547-1.134-1.339-.092-1.863.217-4.181,2.463-8.358,4.937-12.46,7.529C64.077,411.382,62.148,412.949,60.147,414.4Zm57.648-3.891c-.838-1.429-1.215-2.987-2.631-2.852a25.337,25.337,0,0,0-7.568,2.012,28.521,28.521,0,0,1,10.2.844Zm81.291-1.15c-2.044-.5-4.083-1.026-6.134-1.5-2.288-.528-3-.032-3.654,2.632,3.215-1.24,6.492-.811,9.788-1.128Z" fill="#de901b"/>
      <path id="Path_3524" data-name="Path 3524" d="M151.33,410.3c1.02,2.4,2.232,4.733,1.222,7.449-.444,1.2-1.156,2.42-2.659,2.127A3.211,3.211,0,0,1,147.262,417C147,415.079,149.269,411.267,151.33,410.3Zm-.559,1.665c-1.1,1.775-1.941,3.169-1.983,4.875a1.651,1.651,0,0,0,1.34,1.827c.8.126,1.048-.668,1.342-1.313.825-1.8-.228-3.323-.7-5.386Z" fill="#de901b"/>
      <g id="Group_6" data-name="Group 6">
        <path id="Path_3525" data-name="Path 3525" d="M125.416,405.518c-1.921,2.435-4.384,4.008-6.692,3.188a18.5,18.5,0,0,1,.738-2.025c-.285.059-.569.112-.855.172a4.219,4.219,0,0,1-.469.6,26.769,26.769,0,0,1,1.13,2.853c.048.164.09.318.131.471a9.177,9.177,0,0,0,7.439-4.032q.618-.831,1.177-1.691Q126.718,405.279,125.416,405.518Z" fill="#de901b"/>
        <path id="Path_3526" data-name="Path 3526" d="M60.229,339.434a17.722,17.722,0,0,1,4.251,5.607,10.736,10.736,0,0,0,7.372,5.571,40.344,40.344,0,0,0,8.258.744c2.2.091,4.789.165,5.8,2.422,1.6,3.56,2.813,7.3,4.485,10.869-1.2-1.068-2.226-2.264-3.369-3.333-3.04-2.845-6.474-4.29-10.8-3.5-3.145.571-6.18,1.5-9.281,2.2-2.033.456-2.3.8-1.179,2.525a53.942,53.942,0,0,0,6.478,8.394,12.972,12.972,0,0,0,9.409,4.244,14.726,14.726,0,0,0,8.925-2.9c1.6-1.134,3.512-1.724,4.9-.1,2.619,3.057,5.138,6.2,7.934,9.106q1.367-.357,2.733-.706a71.615,71.615,0,0,1-8.04-8.972,1.88,1.88,0,0,1-.048-2.461,10.432,10.432,0,0,1,2.815-2.746c2.009-1.359,4.076-2.634,6.056-4.034a7.985,7.985,0,0,0,3.273-6c.394-3.509-1.108-6.641-1.849-9.92-.212-.938-.967-.756-1.62-.215-1.708,1.414-3.4,2.854-5.163,4.2-5.248,3.992-8.284,8.948-6.97,16.263a55.9,55.9,0,0,1-5.973-12.043,4.145,4.145,0,0,1,.735-4.413,12.112,12.112,0,0,1,3.12-2.729,50.2,50.2,0,0,1,6.362-3.051,7.294,7.294,0,0,0,4.412-5.394c.664-3.111-.578-6.027-.737-9.051-.052-1-.969-.8-1.586-.331a19.408,19.408,0,0,1-4.36,2.4c-5.416,2.243-9.8,5.432-10.724,12.4A57.452,57.452,0,0,1,83.914,333.6,4.193,4.193,0,0,1,85.2,330.04c2.275-2.493,5.272-3.469,8.413-4.181a7.122,7.122,0,0,0,5.7-4.887c1.363-4.189,1.456-8.634,3-13.414a42.567,42.567,0,0,0-10.84,4.527,15.289,15.289,0,0,0-7,8.673c.438-3.19,1.064-6.3,1.433-9.45a5.563,5.563,0,0,1,2.825-4.544,33.144,33.144,0,0,0,5.834-3.982,10.64,10.64,0,0,0,3.619-10.652c-.805-3.922-2.231-7.7-2.687-11.7-.137-1.2-.943-1.654-1.857-.7-3.077,3.2-6.744,5.815-9.389,9.436-4.481,6.133-4.563,11.681-.3,18.041a2.462,2.462,0,0,1,.667,1.883c-1.011,6.116-2.407,12.17-2.868,18.72-1.535-1.978-1.494-3.971-1.645-5.948-.712-9.368-2.059-12.62-12.247-16.547-.915-.353-2.134-.6-2.022.713.346,4.038-.69,8.033-.223,12.048.482,4.145,2.32,7.369,6.407,8.957a21.788,21.788,0,0,0,6.266,1.335c2.486.192,3.353,1.138,3.573,3.592a86.884,86.884,0,0,0,1.2,10.318c.159.75.657,1.5.23,2.4-.991-.984-1.9-1.926-2.847-2.821a21.755,21.755,0,0,0-7.148-4.927,17.327,17.327,0,0,0-12.58-.037C59.355,337.4,58.763,338.23,60.229,339.434Zm36.7,28.684c-.058-1.605.7-2.574,1.1-3.639.439-1.169.9-2.384,2.476-2.372a17.1,17.1,0,0,0,3.714-.276c-2.419,2.014-5.3,3.343-7.293,6.287Zm2.876-6.879a18.1,18.1,0,0,1,3.017-5.313c1.294-1.714,3.774-.773,5.543-2.221.57,5.556-2.127,7.854-8.565,7.534Zm7.613-12.714c.395,1.649.679,2.833.961,4.008-1.188,1.218-2.728,1.277-4.614,1.827,1.272-2.038,2.321-3.713,3.65-5.835Zm-2.238,1.733-4.306,6.971c-1.6-4.28,1.632-5.452,4.3-6.971ZM99.369,354.8c1.857,4.508-1.82,7.33-2.781,11.164C94.962,362.83,96.319,357.681,99.369,354.8ZM86.033,367.764c-2.4-.673-4.5-1.281-6.609-1.839-.516-.136-.888-.282-.976-.879a22.99,22.99,0,0,0-1.855-5.222C81.644,359.08,85.059,361.866,86.033,367.764ZM71.2,360.7c4.593-1.171,5.356-.649,6.264,4.417a37.178,37.178,0,0,1-9.009-3.686C69.605,361.119,70.4,360.9,71.2,360.7Zm2.1,8.89c-1.734-2.238-3.474-4.471-5.1-6.9,4.327,1.7,8.646,3.286,13.448,4.675a37.452,37.452,0,0,1-6.035,3.03,1.819,1.819,0,0,1-2.313-.809Zm2.27,1.8c2.479-1.171,4.965-1.876,6.952-3.536.153-.128.512-.066.76-.016a47.442,47.442,0,0,1,7.771,2.074,12.551,12.551,0,0,1-15.487,1.474Zm9.759-8.821c2.357,2,4.139,4.6,6.83,6.4-4.9.467-5.8-3.038-6.834-6.4ZM87.5,350.52c-.283-5.347,3.078-8.073,8.432-6.693C92.435,345.41,89.5,347.223,87.5,350.52Zm8.823-7.908a20.517,20.517,0,0,0-2.686-.089c-.818-.012-1.637,0-2.471,0,1.686-4.57,5.061-5.323,10.225-3.116-.959,2.636-2.506,3.584-5.064,3.2Zm5.362-10.267a24.868,24.868,0,0,1,.066,5.838c-2.12-.488-4.147-1.612-6.426-.818a25.106,25.106,0,0,1,6.364-5.02Zm-4.507,1.769-5.459,4.973c-.625-.306-.215-1.337-.854-1.908a13.468,13.468,0,0,1,6.317-3.065Zm-6.959,3.565c1.885,4.154-2.051,5.831-2.78,8.684-.293-3.175.813-5.863,2.784-8.684Zm3.87-13.79A30.2,30.2,0,0,0,86.72,326.6c1.932-4.543,5.338-6.8,11.384-7.724-.518,2.5-1.566,4.291-4.011,5.013Zm-.492-7.367c-.216-4.079.385-4.7,6.57-6.687-.513,2.462-.948,4.678-1.453,6.878-.113.492-.208,1.068-.907,1.257-1.822.495-3.625,1.06-5.609,1.647,1.433-2.227,3.786-3.228,5.433-5.366-1.947.1-2.637,1.792-4.031,2.271Zm-.562-3.461c-.314,2.47-.214,4.807-2.39,6.714-1.985,1.739-3.47,4.049-5.378,6.353.168-7.367,3.641-11.259,7.772-13.067Zm-6.511-7.337c-.556-4.809,4.481-7.485,9.458-8.127-2.114,4.182-6.03,5.768-9.454,8.127Zm9.195-17.237a24.958,24.958,0,0,1,1.022,6.283c-.04,1.13-.305,1.906-1.761,2-2.39.156-4.378,1.466-6.452,2.707,1.956-3.866,2.819-8.377,7.195-10.99Zm-1.558-6.964a13.894,13.894,0,0,0,.319,1.361c.925,2.619.926,4.9-1.8,6.6-1.432.9-1.743,2.744-2.686,4.126-1.563-6.079-.969-7.836,4.171-12.087ZM88.228,287.3a21.649,21.649,0,0,1-.127,9.526c-.636,3.161-2.594,5.91-3.082,9.469C80.812,299.846,82.146,292.48,88.228,287.3Zm-19.9,19.944c5.168,2.037,5.167,2.038,5.15,7.6A21.658,21.658,0,0,1,73.3,318.2c-2.11-3.49-3.585-7.279-6-11.01a6.393,6.393,0,0,1,1.032.052Zm2.3,8.67c-3.4-1.034-3.4-1.034-2.818-5.376a32.784,32.784,0,0,1,2.82,5.374Zm-3.163-.153c2.139.612,4.056,1.283,5.115,3.614,1.188,2.614,3.176,4.778,4.955,7.17-6.121.155-10.948-4.211-10.068-10.786Zm7.47-4.745c4.392,4.439,2.939,10.338,4.387,15.53-4.545-3.134-6.222-9.035-4.385-15.532ZM66.89,345.377c-1.275-1.879-2.478-3.809-3.955-5.64a51.031,51.031,0,0,1,11.879,4.715c-2.376.789-4.647.708-6.651,1.7C67.5,346.488,67.183,345.809,66.89,345.377Zm1.718,1.866c4.28-2.933,8.737-2.21,14.062,2.375C77.625,349.538,72.945,349.77,68.608,347.243Zm15.762,2.545a38.229,38.229,0,0,0-8.552-5.673,16.454,16.454,0,0,1-6.934-6.365c4.146-1.126,13.6,6.395,15.486,12.038Zm-13.959-8.443a57.838,57.838,0,0,0-8.523-3.14c4.139-1.421,5.533-.924,8.523,3.14Z" fill="#de901b"/>
        <path id="Path_3527" data-name="Path 3527" d="M188.218,408.38c-.873.117-1.713.233-2.549.36-1.052.16-1.517-.565-1.917-1.27-.3-.534-.583-1.083-.861-1.634l-.851-.159a13.9,13.9,0,0,1,1.094,2.917c-2.354,1.073-5.038-.723-7.247-4q-1.253-.207-2.506-.4a23.887,23.887,0,0,0,2.685,3.686,8.6,8.6,0,0,0,7.679,2.883c1.234-.118,2.462-.3,3.7-.475C187.644,409.72,187.9,409.09,188.218,408.38Z" fill="#de901b"/>
        <path id="Path_3528" data-name="Path 3528" d="M161.828,402.607c-1.517-.18-3.035-.346-4.554-.507a35.157,35.157,0,0,0-6.323,3.345,32.789,32.789,0,0,0-5.373-2.953c-1.4.206-2.792.418-4.189.591.314.118.63.234.944.354a30.154,30.154,0,0,1,6.765,3.056c-2.223,2.248-2.223,2.248-1.073,3.543.943-.844,1.649-2.25,3.061-2.193,1.336.054,1.917,1.623,3.17,2.242,1.292-2.007-.795-2.5-1.42-3.6a20.619,20.619,0,0,1,4.656-2.262C158.933,403.678,160.381,403.144,161.828,402.607Z" fill="#de901b"/>
        <path id="Path_3529" data-name="Path 3529" d="M78.512,394.23c-.069-.494-.119-.991-.143-1.49a.991.991,0,0,0,.143,1.49Z" fill="#de901b"/>
        <path id="Path_3530" data-name="Path 3530" d="M196.369,363.356c1.5.995,3.023,1.964,4.539,2.938a12.049,12.049,0,0,1,2.617,2.365,2.164,2.164,0,0,1,.017,3.285c-1.817,2-3.425,4.2-5.24,6.2-.466.514-.951,1.007-1.444,1.49q1.278.315,2.554.64c2.52-2.61,4.692-5.315,6.9-7.985,1.075-1.3,2.558-1.262,3.98-.6.874.4,1.641,1.032,2.489,1.5,4.9,2.7,9.828,2.915,14.529-.3,4.038-2.759,6.525-6.941,9.178-10.923.563-.845.446-1.6-.7-1.882-2.819-.685-5.645-1.341-8.461-2.039-5.481-1.36-9.96.284-13.614,4.474-.658.754-1.357,1.473-2.038,2.208,1.3-3.235,2.779-6.355,3.74-9.649.6-2.061,1.957-2.854,3.769-3.375,2.116-.609,4.28-.258,6.418-.4,5.313-.347,9.945-1.811,12.407-7.175a14.233,14.233,0,0,1,3.242-4.3c1.857-1.758,1.8-2.38-.652-3.146a17.051,17.051,0,0,0-16.3,2.742c-2.039,1.56-3.838,3.391-5.755,5.166a110.28,110.28,0,0,0,1.5-12.032c.321-3.43.838-3.919,4.247-4.216,8.551-.747,12.082-4.627,12.1-13.207.005-2.909-.672-5.785-.269-8.719.2-1.459-.8-1.626-1.887-1.171-1.658.693-3.286,1.46-4.907,2.236a11.984,11.984,0,0,0-6.971,9.456c-.3,1.911-.364,3.858-.575,5.785-.183,1.675-.15,3.431-1.52,4.91-.635-3.08-.563-6.073-1.247-8.987-.677-2.884-.882-5.877-1.509-8.775a3.291,3.291,0,0,1,.582-2.871c3.99-5.7,4.008-11.262.173-17-2.7-4.046-6.684-6.834-9.994-10.281-.928-.967-1.692-.431-1.839.747a70.2,70.2,0,0,1-2.365,10.073c-1.538,5.53-.05,9.976,4.632,13.3,1.524,1.083,3.116,2.074,4.705,3.06a4.583,4.583,0,0,1,2.363,3.025c.642,3.6,1.18,7.215,1.759,10.825C215.8,313.162,203.811,307.8,199.8,308.3c1.3,3.672,1.479,7.566,2.4,11.314.824,3.36,2.706,5.524,6.152,6.255a17.193,17.193,0,0,1,6.008,2.2c1.565,1.028,3.138,2.176,3.647,4.1.455,1.717-1.039,9.843-2.035,11.7-.823-5.442-4.009-8.79-8.763-10.926a29.1,29.1,0,0,1-6.237-3.285c-.627-.49-1.509-.623-1.572.371-.175,2.761-1.213,5.431-.871,8.234a7.509,7.509,0,0,0,4.959,6.374c3.059,1.285,6.216,2.449,8.551,4.984.947,1.029,2.054,2.236,1.628,3.633a45.022,45.022,0,0,1-6.417,13.473,14.258,14.258,0,0,0-3.1-12.8c-2.571-3.164-6.3-4.99-9.137-7.853-.591-.6-1.277-.363-1.528.581-.512,1.932-1.126,3.841-1.566,5.788C190.849,357.185,192.291,360.655,196.369,363.356Zm27.984-36.724c2.285-3.082,4.379-6.1,6.323-9.215.652-1.045,2.415-1.4,3.859-1.626C235.165,322.039,230.842,326.744,224.353,326.632Zm6.885-10.664,2.639-5.309c1.4,3.705,1.252,4.041-2.639,5.309Zm-2.222-6.413a35.843,35.843,0,0,1,5.563-2.686c-2.1,4.165-3.917,7.753-5.919,11.716-.432-2.824.041-5.294-.442-7.7-.118-.585.275-1.01.8-1.33Zm-1.936,1.308c1.351,6.256,1.027,11.645-4.444,15.673,1.376-5.185.032-11.008,4.444-15.673Zm-20.1-25.81c.258-1.136.509-2.274.762-3.411l.573-.336c1.188,1.339,2.3,2.762,3.586,4,1.437,1.376.589,3.047.621,4.509a33.943,33.943,0,0,1-.425,3.841,17.832,17.832,0,0,0-4.814-6.081c-.812-.7-.5-1.643-.3-2.522Zm-1.77,9.873c-.166-2.16.573-4.175.939-6.428,4.461,2.468,5.214,7.092,7.24,10.949-2.246-1.362-4.442-2.6-7.1-2.777-1.022-.07-1.024-1.013-1.08-1.744Zm.77,2.708c2.639-.084,4.422,1.509,6.51,2.34,2.819,1.121,2.366,3.509,3,5.563-3.5-2.185-7.442-3.757-9.511-7.9Zm7.706-10.189c6.248,5.056,7.471,12.749,3.441,18.466-3.681-9.721-4.511-11.336-3.442-18.466ZM201.8,310.009c5.456,1.111,6.818,2.487,6.511,6.532-1.256-.6-2.035-1.863-3.363-2.283-.1-.031-.244.094-.49.2,1.5,1.932,3.857,2.942,5.34,5.259a16.122,16.122,0,0,0-2.732-.878c-3.134-.355-4.348-2.226-4.5-5.19A22.842,22.842,0,0,0,201.8,310.009Zm4.676,13.259c-1.664-.85-2.261-2.495-2.634-4.5,4.874,1.093,9.238,2.437,11.381,7.774-2.894-1.674-6.023-1.882-8.751-3.274Zm3.413-5.138c-1.22-1.259-.54-3.29-1.242-5.3,5.749,2.863,7.83,7.383,7.963,13.3-2.4-2.83-4.367-5.567-6.725-8Zm9.46,31.516c4.8-4.473,8.73-5.173,14.118-2.541-4.385,2.747-9.117,2.373-14.122,2.541Zm15.822-4.413a1.43,1.43,0,0,1-2,.726c-1.849-.648-3.813-.97-6.026-1.5a52.91,52.91,0,0,1,11.816-4.735c-1.367,1.832-2.609,3.651-3.794,5.509Zm4.792-7.04a50.58,50.58,0,0,0-8.292,3.175c2.412-3.928,4.264-4.609,8.288-3.175Zm-7-.6c-1.811,4.458-6.093,5.911-9.715,8.156a43.5,43.5,0,0,0-5.436,3.839c.516-3.973,9.745-12.478,15.149-11.988Zm-21.278.444a10.787,10.787,0,0,1,2.746,8.292c-1.065-1.756-2.106-3.527-3.2-5.262-.7-1.09.247-1.967.452-3.025Zm-.736-1.005a5.408,5.408,0,0,1-.8,2.1l-5.268-5.138a15.658,15.658,0,0,1,6.066,3.043Zm-10.655-4.565a22.413,22.413,0,0,1,6.315,4.859c-2.252-.663-4.243.213-6.355.93-.473-1.939-.126-3.739.038-5.784Zm.257,6.907c4.868-1.974,8.127-1.742,10.264,2.932-6.915,1.144-9.072.53-10.266-2.927Zm5.858,4.473c5.568-1.2,6.6-.043,8.076,6.41a19.865,19.865,0,0,0-8.078-6.4Zm4.674,26.229c5.313-3.336,10.263-1.975,14.975,1.488a12.321,12.321,0,0,1-14.977-1.483Zm17.475-.388a1.877,1.877,0,0,1-2.543.561c-1.789-.86-3.6-1.68-5.891-2.747,4.851-1.627,9.245-2.982,13.533-4.862a52.374,52.374,0,0,1-5.1,7.053Zm4.816-8.218a38.287,38.287,0,0,1-8.743,3.632c.087-5.063,2.084-5.917,8.741-3.627Zm-8.03-1.71c-.664,1.814-1.635,3.5-1.876,5.432a.825.825,0,0,1-.7.678c-2.23.6-4.458,1.2-6.792,1.826.685-5.561,4.215-8.487,9.366-7.931Zm-8.729,2.8c-1.1,3.232-1.8,6.854-6.738,6.36,2.6-1.764,4.384-4.348,6.736-6.357Zm-19.218-.788c6.334.817,6.39.861,7.549,6.012-1.892-2.624-4.869-3.929-7.546-6.009Zm5.1-6.8c2.865,1.85,4.539,7.784,2.855,10.974-.968-3.81-4.64-6.636-2.852-10.97Zm-1.229,2.49c-1.673-2.639-3.087-4.868-4.547-7.169,3.265.714,4.84,3.034,4.548,7.173Zm-6.624-8.7c1.175,1.84,2.256,3.534,3.413,5.348-5.581-.925-4.782-1.228-3.412-5.341Zm-1.11,5.463c4.869-.226,7.121,2.835,8.5,6.929-5.984.709-9.134-1.944-8.5-6.922Z" fill="#de901b"/>
        <path id="Path_3531" data-name="Path 3531" d="M109.08,379.846c.5-.122,1-.241,1.5-.361a8.678,8.678,0,0,1,.274-7.148,8.266,8.266,0,0,1,3.792,6.206l1.206-.269c-.381-5.481.2-7,8.424-9.826.26.763.489,1.339.652,1.933.878,3.206.757,3.467-2.374,4.57a22.089,22.089,0,0,0-5.712,3.1c.742-.16,1.486-.312,2.229-.466a20.315,20.315,0,0,1,6.1-2.294,15.985,15.985,0,0,1-1.036,1.294q1.239-.23,2.481-.438a7.45,7.45,0,0,0,.464-3.849,18.882,18.882,0,0,0-1.844-5.916c-1.46-2.978-3.209-5.826-4.189-9.026-.154-.5-.361-.952-.936-.944-.625.009-.967.5-1.232.995a51.716,51.716,0,0,1-4.662,6.375,64.69,64.69,0,0,0-3.876,5.406,12.094,12.094,0,0,0-1.261,10.658Zm11.1-19.786,3.668,7.366a35.253,35.253,0,0,0-7.165,3.617,38.154,38.154,0,0,1,3.494-10.983Zm-5.2,5.933c1.461,2.1,1.461,2.1-.155,9.25-4.548-4.7-4.225-4.236.153-9.25Z" fill="#de901b"/>
        <path id="Path_3532" data-name="Path 3532" d="M176.98,375.65c-.076-.1-.155-.187-.229-.285a19.68,19.68,0,0,1,2.726.675c.279.045.558.088.837.134q1.321.219,2.637.46a23.657,23.657,0,0,0-5.665-2.4c-.752-.2-.7-.8-.651-1.329a9.976,9.976,0,0,1,1.089-4.371c6.013,1.518,8.387,3.815,8.578,8.743.4.079.8.163,1.2.245a7.976,7.976,0,0,1,3.724-5.245,12.2,12.2,0,0,1,.447,6.138c.51.115,1.019.235,1.528.352a12.591,12.591,0,0,0-1.8-9.962c-2.538-4.151-6.12-7.538-8.6-11.744-.609-1.034-1.424-.966-1.913.327-.561,1.485-1.186,2.949-1.846,4.395-1.2,2.638-2.749,5.106-3.618,7.917a9.977,9.977,0,0,0-.295,5.681C175.741,375.463,176.361,375.556,176.98,375.65Zm10.032-9.8c.445.526.859.979,1.235,1.463,2.9,3.732,2.787,4.569-1.381,8.1.363-3.36-2.566-6.319.146-9.564Zm-5.306-5.668c1.986,3.352,2.707,6.876,3.618,10.779a32.916,32.916,0,0,0-7.289-3.43Z" fill="#de901b"/>
        <path id="Path_3533" data-name="Path 3533" d="M132.188,375.258c-.064-.022-.122-.048-.187-.07-.678-.227-1.581-.553-1.782.369C130.874,375.455,131.531,375.354,132.188,375.258Z" fill="#de901b"/>
        <path id="Path_3534" data-name="Path 3534" d="M90.617,384.808Q95,383.547,99.4,382.346a13.97,13.97,0,0,0-8.783,2.462Z" fill="#de901b"/>
      </g>
    </g>
  </g>
</svg>
