<svg xmlns="http://www.w3.org/2000/svg" width="129.764" height="174.401" viewBox="0 0 129.764 174.401">
  <g id="_4" data-name="4" transform="translate(-291.141 -52.525)">
    <path id="Path_3518" data-name="Path 3518" d="M401.958,161.493c6.436,14.7,13.4,28.944,18.369,44.019,1.4,4.242.347,5.387-4.129,4.649-6.845-1.128-13.463-3.19-20.177-4.855-1.538-.381-3.068-.793-4.764-1.233-2.571,6.549-5.105,13.054-7.689,19.539-.515,1.292-.594,3.151-2.417,3.282-1.8.129-2.508-1.5-3.279-2.807a60.288,60.288,0,0,1-3.2-6.984c-3.863-8.965-7.8-17.9-11.671-26.86-.987-2.285-1.863-4.62-2.715-6.959a1.857,1.857,0,0,0-2.146-1.435c-1.821.132-3.912-1.1-5.4.108-1.342,1.084-1.437,3.225-2.125,4.88-2.286,5.5-4.5,11.03-6.977,16.441-2.567,5.6-5.121,11.21-7.424,16.931a43.024,43.024,0,0,1-2.465,4.8c-.59,1.059-1.417,2.015-2.749,1.909s-1.623-1.348-2.027-2.374q-3.764-9.567-7.522-19.137c-.15-.383-.334-.752-.576-1.294-6.066,1.564-12.135,3.141-18.211,4.689a38.882,38.882,0,0,1-8.371,1.473c-2.979.091-3.691-.821-2.784-3.624a286.146,286.146,0,0,1,11.645-29.289c2.13-4.73,4.221-9.477,6.354-14.205.267-.593.6-1.086-.058-1.648-3.8-3.258-4.845-7.589-4.63-12.308-1.007-.464-1.866-.915-2.764-1.264-6.323-2.457-9.73-9.18-6.611-16.672a2.41,2.41,0,0,0-.473-2.469c-1.6-2.677-3.343-5.305-3.441-8.577a16.357,16.357,0,0,1,3.434-10.038,2.829,2.829,0,0,0,.557-2.477c-1.782-8.1.4-14.678,7.572-19.225a4.109,4.109,0,0,0,1.984-3.4c.756-7.844,5.067-12.806,12.444-15.238a5.969,5.969,0,0,0,3.872-3.469c3.4-7.937,9.974-10.021,18.177-8.762a5.563,5.563,0,0,0,4.913-1.2,18.08,18.08,0,0,1,22.493.077,5.154,5.154,0,0,0,4.734,1.13,20.832,20.832,0,0,1,7.858-.021,12.961,12.961,0,0,1,9.88,7.778,8.312,8.312,0,0,0,5.27,4.846c6.915,2.366,10.757,7.282,11.5,14.57a4.772,4.772,0,0,0,2.314,3.883c6.95,4.438,8.973,10.917,7.386,18.742a3.413,3.413,0,0,0,.546,2.862c4.347,6.651,4.488,11.321.8,17a6.026,6.026,0,0,0-.787,5.669c1.748,5.867-.081,11.559-6.006,14.331-2.647,1.238-4.244,2.383-4.171,5.726C406.38,156.318,404.569,159.217,401.958,161.493ZM372.965,175.3c.916,0,1.473.029,2.026,0,6.659-.4,12.117-2.781,15.07-9.22a3.686,3.686,0,0,1,2.333-1.909c1.168-.427,2.375-.77,3.5-1.286,4.75-2.174,8.3-5.377,8.625-10.979.2-3.464,1.723-5.577,4.964-7.094,4.152-1.943,6.293-6.891,4.576-10.893-1.377-3.21-.707-5.556,1.138-8.033a13.1,13.1,0,0,0,.91-1.633c2.323-4.3,1.557-8.513-1.182-12.1a6.182,6.182,0,0,1-1.277-5.663c1.5-7.014-.419-12.626-6.926-16.225a5.164,5.164,0,0,1-2.729-4.582c-.409-6.609-3.382-11.36-9.952-13.3a9.832,9.832,0,0,1-6.72-6.194c-1.527-3.762-4.6-5.832-8.525-6.556a15.121,15.121,0,0,0-6.2.125,6.926,6.926,0,0,1-6.674-1.464c-5.382-4.52-15.138-4.487-20.515.018a6.731,6.731,0,0,1-6.271,1.534c-7.176-1.479-13.178.743-15.977,8.043a6.248,6.248,0,0,1-4.143,3.8c-.986.32-1.921.792-2.9,1.137-5.6,1.975-8.109,6.3-8.623,11.865a7.135,7.135,0,0,1-3.75,6.18c-4.751,2.766-6.906,7.051-6.418,12.573a27.659,27.659,0,0,0,.588,4.319,3.6,3.6,0,0,1-1.029,3.742,11.121,11.121,0,0,0-1.777,12.407c.775,1.546,1.7,3.017,2.586,4.508a3.477,3.477,0,0,1,.254,3.563,9.711,9.711,0,0,0,5.044,13.505,5.382,5.382,0,0,1,3.6,5.242c.357,6.568,4.208,10.437,10.065,12.67.839.32,1.692.607,2.549.873a3.435,3.435,0,0,1,2.214,2.033,14.341,14.341,0,0,0,8.509,7.754,22.309,22.309,0,0,0,9.618,1.178,6.3,6.3,0,0,1,3.716.929c7.194,4.052,14.617,4.748,22.285,1.269C368.011,176.318,370.266,174.3,372.965,175.3Zm39.713,26.778c-4.3-13.029-10.522-24.92-15.3-37.414-1.574.513-2.931,1.025-4.327,1.386a2.741,2.741,0,0,0-1.8,1.551,17.754,17.754,0,0,1-18.9,9.547c-.612-.085-1.208-.28-1.788.169a39.86,39.86,0,0,1-5.869,3.357c5.794,11.258,10.188,23.014,15,34.7a4.842,4.842,0,0,0,1.393-2.2c2.307-4.724,4.642-9.435,6.829-14.214a2.426,2.426,0,0,1,3.138-1.517c2.833.6,5.659,1.236,8.491,1.842,4.3.924,8.6,1.833,13.133,2.8Zm-64.965-21.817a12.141,12.141,0,0,1-4.833-2.223,4.058,4.058,0,0,0-3.615-.955c-7.585.961-13.988-1.226-18.088-7.88-1.622-2.632-3.7-3.607-6.495-4.171-4.745,12.355-10.926,24.159-15.077,36.812a2.367,2.367,0,0,0,1.485-.028q10-2.194,20-4.37a2.525,2.525,0,0,1,3.268,1.639c2.3,5.028,4.761,9.984,7.187,14.954.217.445.243,1.124,1.037,1.193,4.773-11.673,9.231-23.491,15.131-34.968ZM311.162,162.9c-6.076,15.16-13.421,29.6-18.219,45.123a5.02,5.02,0,0,0,2.882.045q5.151-1.209,10.282-2.5c4.025-1.01,8.028-2.109,12.065-3.067,3.146-.747,3.758-.387,5.11,2.589,2.063,4.54,4.044,9.114,5.724,13.814.7,1.962,1.467,3.9,2.2,5.851l.72.119c6.014-14.685,13.122-28.881,19.032-43.616-2.058-.842-2.024-.826-2.834.878-5.259,11.065-9.758,22.455-14.47,33.755-.3.719-.344,1.661-1.362,1.869a4.246,4.246,0,0,1-1.173-1.951c-2.526-5.307-5.046-10.616-7.516-15.949-.432-.932-.857-1.433-2-1.179-7,1.561-14.02,3.06-21.025,4.613-.736.163-1.545.7-2.119.01-.554-.665-.313-1.5.017-2.339,3.476-8.8,6.808-17.655,10.859-26.221,1.586-3.354,2.854-6.858,4.283-10.335Zm108.166,45.371c-4.9-15.945-12.41-30.529-18.395-45.68-2.246.623-2.442,1.673-1.594,3.811,2.654,6.689,5.885,13.122,8.551,19.8,1.971,4.937,3.882,9.9,5.87,14.829a2.477,2.477,0,0,1,.066,2.191c-.36.642-1.088.4-1.7.266-7.074-1.565-14.157-3.093-21.218-4.716a1.71,1.71,0,0,0-2.35,1.169c-2.469,5.411-5.039,10.777-7.6,16.143-.282.59-.372,1.357-1.2,1.7-1.023-.524-1.132-1.653-1.5-2.555-4.5-10.945-8.947-21.907-13.926-32.647-.674-1.454-1.382-1.941-2.888-.872,5.88,14.621,12.883,28.708,19.19,43.149a9.452,9.452,0,0,0,1.311-2.583c2.088-5.8,4.36-11.532,6.945-17.134,1.409-3.055,2.005-3.4,5.284-2.6,4.435,1.085,8.84,2.295,13.27,3.4,3.8.951,7.542,2.226,11.884,2.333Z" fill="#de901b"/>
    <path id="Path_3519" data-name="Path 3519" d="M310.389,119.538c-1.56-20.673,18.876-45.481,45.654-45.476,26.534,0,47.453,24.708,45.6,46.158,1.358,20.242-18.773,45.059-45.653,45.055C329.3,165.271,308.706,140.475,310.389,119.538Zm89.646-.977c.762-15.929-14.971-42.107-42.754-43.132A40.191,40.191,0,0,0,328.26,85.8c-10.689,9.567-16.7,21.056-16.526,36.085C311.9,136.279,326.7,162.8,354.645,163.9a39.931,39.931,0,0,0,29.036-10.3c10.687-9.623,17.838-21.044,16.354-35.039Z" fill="#de901b"/>
    <path id="Path_3520" data-name="Path 3520" d="M355.945,159.879c-18.3-1.034-40.128-13.9-40.066-40.34.061-26.39,22.1-39.988,40.327-39.862,18.334.127,40.077,13.763,39.962,40.228C396.055,146.116,374.232,158.945,355.945,159.879Zm38.63-40.058c.088-24.852-20.609-38.459-38.452-38.522-17.778-.064-38.518,13.462-38.651,38.117-.135,24.978,20.7,38.632,38.558,38.626C373.868,158.035,394.509,144.463,394.575,119.821Z" fill="#de901b"/>
    <g id="Group" transform="translate(204 -47.737)">
      <path id="WINNER" d="M8.35-7.741H9.994L7.814,0H6.27L5.335-4.527l-.273-1.5-.273,1.5L3.855,0h-1.5L.158-7.741H1.875L2.9-3.308l.221,1.234.226-1.208.872-4.458H5.924l.919,4.432.236,1.234.236-1.187Zm2.494,0h1.607V0H10.844ZM20.218,0H18.6L15.439-5.5V0H13.932V-7.741h1.7l3.083,5.4v-5.4h1.507Zm7.767,0H26.368L23.206-5.5V0H21.7V-7.741h1.7l3.083,5.4v-5.4h1.507Zm6.9-3.382H31.12v1.99h4.285V0H29.539V-7.741h5.677V-6.37h-4.1v1.644h3.76Zm5.073.347h-1.67V0H36.7V-7.741h3.8a3.537,3.537,0,0,1,1.252.2A1.957,1.957,0,0,1,42.495-7a2.4,2.4,0,0,1,.4.651,2.122,2.122,0,0,1,.147.814,2.319,2.319,0,0,1-.278,1.084,1.555,1.555,0,0,1-.919.754,1.445,1.445,0,0,1,.759.612,2.547,2.547,0,0,1,.223,1.21v.52a3.977,3.977,0,0,0,.042.719.646.646,0,0,0,.294.441V0h-1.78q-.074-.257-.105-.415a3.812,3.812,0,0,1-.068-.667L41.2-1.8a1.406,1.406,0,0,0-.27-.987A1.435,1.435,0,0,0,39.953-3.035Zm.982-1.407a.862.862,0,0,0,.483-.872.962.962,0,0,0-.467-.945,1.766,1.766,0,0,0-.788-.137h-1.88v2.08h1.833A2.043,2.043,0,0,0,40.935-4.443Z" transform="translate(130.984 159.562)" fill="#eaeaea"/>
      <path id="_2017" data-name="2017" d="M5.385.359A2.027,2.027,0,0,0,7.132-.646a1.437,1.437,0,0,0,.12-.335.493.493,0,0,0-.479-.455.431.431,0,0,0-.383.215,1.154,1.154,0,0,1-1.029.646,8.314,8.314,0,0,1-2.7-1.053A28.168,28.168,0,0,0,6.222-5.361c1.388-1.795,3.327-4.954,3.327-6.964a3.229,3.229,0,0,0-3.422-3.327,4.088,4.088,0,0,0-4.164,3.925,2.617,2.617,0,0,0,.359,1.364.465.465,0,0,0,.383.191.449.449,0,0,0,.455-.431.533.533,0,0,0-.1-.311,1.406,1.406,0,0,1-.168-.838A3.181,3.181,0,0,1,6.1-14.718a2.341,2.341,0,0,1,2.513,2.393c0,1.819-1.7,4.571-3.039,6.27A24.673,24.673,0,0,1,1.651-1.986a4.662,4.662,0,0,0-1.34-.168c-.79,0-2.106.383-2.106,1.46A.988.988,0,0,0-.718.311,1.974,1.974,0,0,0,.1.12,12.864,12.864,0,0,0,1.819-.933a9.415,9.415,0,0,1,1.2.527A5.4,5.4,0,0,0,5.385.359ZM.6-1.221a7.189,7.189,0,0,1-.885.5A1.679,1.679,0,0,1-.718-.6c-.072,0-.144-.024-.144-.1,0-.407.79-.527,1.173-.527ZM12.4.335c3.3,0,6.964-6.868,6.964-11.727,0-1.532-.479-4.14-2.585-4.14-3.327,0-6.988,6.94-6.988,11.727C9.788-2.25,10.267.335,12.4.335ZM16.776-14.6c1.364,0,1.651,2.034,1.651,3.183C18.428-7.012,15.149-.6,12.4-.6c-1.388,0-1.675-2.01-1.675-3.183C10.722-8.209,14.048-14.6,16.776-14.6Zm7.539.838a.572.572,0,0,0,.215-.048l.574-.311C23.238-9.381,21.012-3.829,19.624-.311a.982.982,0,0,0-.024.263.475.475,0,0,0,.479.383.43.43,0,0,0,.407-.287l6.007-15.005a.838.838,0,0,0,.048-.239.411.411,0,0,0-.383-.383.637.637,0,0,0-.287.072l-1.771.885a.41.41,0,0,0-.239.383A.443.443,0,0,0,24.315-13.761ZM27.57.287a.435.435,0,0,0,.383-.239l8.639-14.527a.706.706,0,0,0,.12-.359.47.47,0,0,0-.455-.455H29.173a.476.476,0,0,0-.455.479.454.454,0,0,0,.455.455H35.4L27.139-.455a.643.643,0,0,0-.1.311A.488.488,0,0,0,27.57.287Z" transform="translate(134.936 183.912)" fill="#eaeaea"/>
    </g>
  </g>
</svg>
